  0
SECTION
  2
HEADER
  9
$ACADVER
  1
AC1014
  9
$HANDSEED
  5
FFFF
  9
$INSUNITS
 70
     5
  9
$MEASUREMENT
 70
     1
  0
ENDSEC
  0
SECTION
  2
TABLES
  0
TABLE
  2
VPORT
  5
8
330
0
100
AcDbSymbolTable
 70
     4
  0
VPORT
  5
2E
330
8
100
AcDbSymbolTableRecord
100
AcDbViewportTableRecord
  2
*ACTIVE
 70
     0
 10
0.0
 20
0.0
 11
1.0
 21
1.0
 12
210.0
 22
148.5
 13
0.0
 23
0.0
 14
10.0
 24
10.0
 15
10.0
 25
10.0
 16
0.0
 26
0.0
 36
1.0
 17
0.0
 27
0.0
 37
0.0
 40
341.0
 41
1.24
 42
50.0
 43
0.0
 44
0.0
 50
0.0
 51
0.0
 71
     0
 72
   100
 73
     1
 74
     3
 75
     0
 76
     0
 77
     0
 78
     0
  0
ENDTAB
  0
TABLE
  2
LTYPE
  5
5
330
0
100
AcDbSymbolTable
 70
     1
  0
LTYPE
  5
14
330
5
100
AcDbSymbolTableRecord
100
AcDbLinetypeTableRecord
  2
BYBLOCK
 70
     0
  3

 72
    65
 73
     0
 40
0.0
  0
LTYPE
  5
15
330
5
100
AcDbSymbolTableRecord
100
AcDbLinetypeTableRecord
  2
BYLAYER
 70
     0
  3

 72
    65
 73
     0
 40
0.0
  0
LTYPE
  5
16
330
5
100
AcDbSymbolTableRecord
100
AcDbLinetypeTableRecord
  2
CONTINUOUS
 70
     0
  3
Solid line
 72
    65
 73
     0
 40
0.0
  0
ENDTAB
  0
TABLE
  2
LAYER
  5
2
100
AcDbSymbolTable
 70
1
  0
LAYER
  5
50
100
AcDbSymbolTableRecord
100
AcDbLayerTableRecord
  2
0
 70
0
  6
CONTINUOUS
  0
ENDTAB
  0
TABLE
  2
STYLE
  5
3
330
0
100
AcDbSymbolTable
 70
     1
  0
STYLE
  5
11
330
3
100
AcDbSymbolTableRecord
100
AcDbTextStyleTableRecord
  2
STANDARD
 70
     0
 40
0.0
 41
1.0
 50
0.0
 71
     0
 42
2.5
  3
txt
  4

  0
ENDTAB
  0
TABLE
  2
VIEW
  5
6
330
0
100
AcDbSymbolTable
 70
     0
  0
ENDTAB
  0
TABLE
  2
UCS
  5
7
330
0
100
AcDbSymbolTable
 70
     0
  0
ENDTAB
  0
TABLE
  2
APPID
  5
9
330
0
100
AcDbSymbolTable
 70
     2
  0
APPID
  5
12
330
9
100
AcDbSymbolTableRecord
100
AcDbRegAppTableRecord
  2
ACAD
 70
     0
  0
ENDTAB
  0
TABLE
  2
DIMSTYLE
  5
A
330
0
100
AcDbSymbolTable
 70
     1
  0
DIMSTYLE
105
27
330
A
100
AcDbSymbolTableRecord
100
AcDbDimStyleTableRecord
  2
ISO-25
 70
     0
  3

  4

  5

  6

  7

 40
1.0
 41
2.5
 42
0.625
 43
3.75
 44
1.25
 45
0.0
 46
0.0
 47
0.0
 48
0.0
140
2.5
141
2.5
142
0.0
143
0.03937007874016
144
1.0
145
0.0
146
1.0
147
0.625
 71
     0
 72
     0
 73
     0
 74
     0
 75
     0
 76
     0
 77
     1
 78
     8
170
     0
171
     3
172
     1
173
     0
174
     0
175
     0
176
     0
177
     0
178
     0
270
     2
271
     2
272
     2
273
     2
274
     3
340
11
275
     0
280
     0
281
     0
282
     0
283
     0
284
     8
285
     0
286
     0
287
     3
288
     0
  0
ENDTAB
  0
TABLE
  2
BLOCK_RECORD
  5
1
330
0
100
AcDbSymbolTable
 70
     1
  0
BLOCK_RECORD
  5
1F
330
1
100
AcDbSymbolTableRecord
100
AcDbBlockTableRecord
  2
*MODEL_SPACE
  0
BLOCK_RECORD
  5
1B
330
1
100
AcDbSymbolTableRecord
100
AcDbBlockTableRecord
  2
*PAPER_SPACE
  0
ENDTAB
  0
ENDSEC
  0
SECTION
  2
BLOCKS
  0
BLOCK
  5
20
330
1F
100
AcDbEntity
  8
0
100
AcDbBlockBegin
  2
*MODEL_SPACE
 70
     0
 10
0.0
 20
0.0
 30
0.0
  3
*MODEL_SPACE
  1

  0
ENDBLK
  5
21
330
1F
100
AcDbEntity
  8
0
100
AcDbBlockEnd
  0
BLOCK
  5
1C
330
1B
100
AcDbEntity
 67
     1
  8
0
100
AcDbBlockBegin
  2
*PAPER_SPACE
  1

  0
ENDBLK
  5
1D
330
1B
100
AcDbEntity
 67
     1
  8
0
100
AcDbBlockEnd
  0
ENDSEC
  0
SECTION
  2
ENTITIES
  0
LWPOLYLINE
  5
100
100
AcDbEntity
  8
0
 62
7
100
AcDbPolyline
 90
2
 70
0
 10
5.456500
 20
0.889160
 30
0.0
 10
6.126500
 20
0.889160
 30
0.0
  0
LWPOLYLINE
  5
101
100
AcDbEntity
  8
0
 62
7
100
AcDbPolyline
 90
2
 70
0
 10
4.506500
 20
0.889160
 30
0.0
 10
3.886500
 20
0.889160
 30
0.0
  0
LWPOLYLINE
  5
102
100
AcDbEntity
  8
0
 62
7
100
AcDbPolyline
 90
16
 70
1
 10
8.566500
 20
3.340446
 30
0.0
 10
8.623643
 20
3.340446
 30
0.0
 10
8.652214
 20
3.326160
 30
0.0
 10
8.680786
 20
3.297589
 30
0.0
 10
8.695071
 20
3.240446
 30
0.0
 10
8.695071
 20
3.140446
 30
0.0
 10
8.680786
 20
3.083303
 30
0.0
 10
8.652214
 20
3.054731
 30
0.0
 10
8.623643
 20
3.040446
 30
0.0
 10
8.566500
 20
3.040446
 30
0.0
 10
8.537929
 20
3.054731
 30
0.0
 10
8.509357
 20
3.083303
 30
0.0
 10
8.495071
 20
3.140446
 30
0.0
 10
8.495071
 20
3.240446
 30
0.0
 10
8.509357
 20
3.297589
 30
0.0
 10
8.537929
 20
3.326160
 30
0.0
  0
LWPOLYLINE
  5
103
100
AcDbEntity
  8
0
 62
7
100
AcDbPolyline
 90
10
 70
0
 10
8.823643
 20
3.340446
 30
0.0
 10
8.823643
 20
3.097589
 30
0.0
 10
8.837929
 20
3.069017
 30
0.0
 10
8.852214
 20
3.054731
 30
0.0
 10
8.880786
 20
3.040446
 30
0.0
 10
8.937928
 20
3.040446
 30
0.0
 10
8.966500
 20
3.054731
 30
0.0
 10
8.980786
 20
3.069017
 30
0.0
 10
8.995071
 20
3.097589
 30
0.0
 10
8.995071
 20
3.340446
 30
0.0
  0
LWPOLYLINE
  5
104
100
AcDbEntity
  8
0
 62
7
100
AcDbPolyline
 90
2
 70
0
 10
9.095071
 20
3.340446
 30
0.0
 10
9.266500
 20
3.340446
 30
0.0
  0
LWPOLYLINE
  5
105
100
AcDbEntity
  8
0
 62
7
100
AcDbPolyline
 90
2
 70
0
 10
9.180786
 20
3.040446
 30
0.0
 10
9.180786
 20
3.340446
 30
0.0
  0
LWPOLYLINE
  5
106
100
AcDbEntity
  8
0
 62
7
100
AcDbPolyline
 90
16
 70
0
 10
4.942405
 20
3.414684
 30
0.0
 10
4.847167
 20
3.414684
 30
0.0
 10
4.837643
 20
3.319446
 30
0.0
 10
4.847167
 20
3.328970
 30
0.0
 10
4.866214
 20
3.338493
 30
0.0
 10
4.913833
 20
3.338493
 30
0.0
 10
4.932881
 20
3.328970
 30
0.0
 10
4.942405
 20
3.319446
 30
0.0
 10
4.951929
 20
3.300398
 30
0.0
 10
4.951929
 20
3.252779
 30
0.0
 10
4.942405
 20
3.233732
 30
0.0
 10
4.932881
 20
3.224208
 30
0.0
 10
4.913833
 20
3.214684
 30
0.0
 10
4.866214
 20
3.214684
 30
0.0
 10
4.847167
 20
3.224208
 30
0.0
 10
4.837643
 20
3.233732
 30
0.0
  0
LWPOLYLINE
  5
107
100
AcDbEntity
  8
0
 62
7
100
AcDbPolyline
 90
3
 70
0
 10
5.009071
 20
3.414684
 30
0.0
 10
5.075738
 20
3.214684
 30
0.0
 10
5.142405
 20
3.414684
 30
0.0
  0
LWPOLYLINE
  5
108
100
AcDbEntity
  8
0
 62
7
100
AcDbPolyline
 90
4
 70
0
 10
4.621357
 20
0.811684
 30
0.0
 10
4.602310
 20
0.821208
 30
0.0
 10
4.592786
 20
0.840255
 30
0.0
 10
4.592786
 20
1.011684
 30
0.0
  0
LWPOLYLINE
  5
109
100
AcDbEntity
  8
0
 62
7
100
AcDbPolyline
 90
13
 70
0
 10
4.773738
 20
0.821208
 30
0.0
 10
4.754690
 20
0.811684
 30
0.0
 10
4.716595
 20
0.811684
 30
0.0
 10
4.697548
 20
0.821208
 30
0.0
 10
4.688024
 20
0.840255
 30
0.0
 10
4.688024
 20
0.916446
 30
0.0
 10
4.697548
 20
0.935493
 30
0.0
 10
4.716595
 20
0.945017
 30
0.0
 10
4.754690
 20
0.945017
 30
0.0
 10
4.773738
 20
0.935493
 30
0.0
 10
4.783262
 20
0.916446
 30
0.0
 10
4.783262
 20
0.897398
 30
0.0
 10
4.688024
 20
0.878350
 30
0.0
  0
LWPOLYLINE
  5
10a
100
AcDbEntity
  8
0
 62
7
100
AcDbPolyline
 90
3
 70
0
 10
4.849929
 20
0.945017
 30
0.0
 10
4.897548
 20
0.811684
 30
0.0
 10
4.945167
 20
0.945017
 30
0.0
  0
LWPOLYLINE
  5
10b
100
AcDbEntity
  8
0
 62
7
100
AcDbPolyline
 90
13
 70
0
 10
5.097548
 20
0.821208
 30
0.0
 10
5.078500
 20
0.811684
 30
0.0
 10
5.040405
 20
0.811684
 30
0.0
 10
5.021357
 20
0.821208
 30
0.0
 10
5.011833
 20
0.840255
 30
0.0
 10
5.011833
 20
0.916446
 30
0.0
 10
5.021357
 20
0.935493
 30
0.0
 10
5.040405
 20
0.945017
 30
0.0
 10
5.078500
 20
0.945017
 30
0.0
 10
5.097548
 20
0.935493
 30
0.0
 10
5.107071
 20
0.916446
 30
0.0
 10
5.107071
 20
0.897398
 30
0.0
 10
5.011833
 20
0.878350
 30
0.0
  0
LWPOLYLINE
  5
10c
100
AcDbEntity
  8
0
 62
7
100
AcDbPolyline
 90
4
 70
0
 10
5.221357
 20
0.811684
 30
0.0
 10
5.202310
 20
0.821208
 30
0.0
 10
5.192786
 20
0.840255
 30
0.0
 10
5.192786
 20
1.011684
 30
0.0
  0
LWPOLYLINE
  5
10d
100
AcDbEntity
  8
0
 62
7
100
AcDbPolyline
 90
16
 70
0
 10
5.288024
 20
0.821208
 30
0.0
 10
5.307071
 20
0.811684
 30
0.0
 10
5.345167
 20
0.811684
 30
0.0
 10
5.364214
 20
0.821208
 30
0.0
 10
5.373738
 20
0.840255
 30
0.0
 10
5.373738
 20
0.849779
 30
0.0
 10
5.364214
 20
0.868827
 30
0.0
 10
5.345167
 20
0.878350
 30
0.0
 10
5.316595
 20
0.878350
 30
0.0
 10
5.297548
 20
0.887874
 30
0.0
 10
5.288024
 20
0.906922
 30
0.0
 10
5.288024
 20
0.916446
 30
0.0
 10
5.297548
 20
0.935493
 30
0.0
 10
5.316595
 20
0.945017
 30
0.0
 10
5.345167
 20
0.945017
 30
0.0
 10
5.364214
 20
0.935493
 30
0.0
  0
LWPOLYLINE
  5
10e
100
AcDbEntity
  8
0
 62
7
100
AcDbPolyline
 90
2
 70
0
 10
2.803071
 20
3.252303
 30
0.0
 10
2.803071
 20
3.402303
 30
0.0
  0
LWPOLYLINE
  5
10f
100
AcDbEntity
  8
0
 62
7
100
AcDbPolyline
 90
12
 70
0
 10
2.803071
 20
3.345160
 30
0.0
 10
2.817357
 20
3.352303
 30
0.0
 10
2.845929
 20
3.352303
 30
0.0
 10
2.860214
 20
3.345160
 30
0.0
 10
2.867357
 20
3.338017
 30
0.0
 10
2.874500
 20
3.323732
 30
0.0
 10
2.874500
 20
3.280874
 30
0.0
 10
2.867357
 20
3.266589
 30
0.0
 10
2.860214
 20
3.259446
 30
0.0
 10
2.845929
 20
3.252303
 30
0.0
 10
2.817357
 20
3.252303
 30
0.0
 10
2.803071
 20
3.259446
 30
0.0
  0
LWPOLYLINE
  5
110
100
AcDbEntity
  8
0
 62
7
100
AcDbPolyline
 90
2
 70
0
 10
2.924500
 20
3.352303
 30
0.0
 10
2.960214
 20
3.252303
 30
0.0
  0
LWPOLYLINE
  5
111
100
AcDbEntity
  8
0
 62
7
100
AcDbPolyline
 90
5
 70
0
 10
2.995929
 20
3.352303
 30
0.0
 10
2.960214
 20
3.252303
 30
0.0
 10
2.945929
 20
3.216589
 30
0.0
 10
2.938786
 20
3.209446
 30
0.0
 10
2.924500
 20
3.202303
 30
0.0
  0
LWPOLYLINE
  5
112
100
AcDbEntity
  8
0
 62
7
100
AcDbPolyline
 90
2
 70
0
 10
3.053071
 20
3.352303
 30
0.0
 10
3.053071
 20
3.202303
 30
0.0
  0
LWPOLYLINE
  5
113
100
AcDbEntity
  8
0
 62
7
100
AcDbPolyline
 90
12
 70
0
 10
3.053071
 20
3.345160
 30
0.0
 10
3.067357
 20
3.352303
 30
0.0
 10
3.095929
 20
3.352303
 30
0.0
 10
3.110214
 20
3.345160
 30
0.0
 10
3.117357
 20
3.338017
 30
0.0
 10
3.124500
 20
3.323732
 30
0.0
 10
3.124500
 20
3.280874
 30
0.0
 10
3.117357
 20
3.266589
 30
0.0
 10
3.110214
 20
3.259446
 30
0.0
 10
3.095929
 20
3.252303
 30
0.0
 10
3.067357
 20
3.252303
 30
0.0
 10
3.053071
 20
3.259446
 30
0.0
  0
LWPOLYLINE
  5
114
100
AcDbEntity
  8
0
 62
7
100
AcDbPolyline
 90
6
 70
0
 10
3.253071
 20
3.252303
 30
0.0
 10
3.253071
 20
3.330874
 30
0.0
 10
3.245929
 20
3.345160
 30
0.0
 10
3.231643
 20
3.352303
 30
0.0
 10
3.203071
 20
3.352303
 30
0.0
 10
3.188786
 20
3.345160
 30
0.0
  0
LWPOLYLINE
  5
115
100
AcDbEntity
  8
0
 62
7
100
AcDbPolyline
 90
10
 70
0
 10
3.253071
 20
3.259446
 30
0.0
 10
3.238786
 20
3.252303
 30
0.0
 10
3.203071
 20
3.252303
 30
0.0
 10
3.188786
 20
3.259446
 30
0.0
 10
3.181643
 20
3.273732
 30
0.0
 10
3.181643
 20
3.288017
 30
0.0
 10
3.188786
 20
3.302303
 30
0.0
 10
3.203071
 20
3.309446
 30
0.0
 10
3.238786
 20
3.309446
 30
0.0
 10
3.253071
 20
3.316589
 30
0.0
  0
LWPOLYLINE
  5
116
100
AcDbEntity
  8
0
 62
7
100
AcDbPolyline
 90
16
 70
0
 10
3.317357
 20
3.259446
 30
0.0
 10
3.331643
 20
3.252303
 30
0.0
 10
3.360214
 20
3.252303
 30
0.0
 10
3.374500
 20
3.259446
 30
0.0
 10
3.381643
 20
3.273732
 30
0.0
 10
3.381643
 20
3.280874
 30
0.0
 10
3.374500
 20
3.295160
 30
0.0
 10
3.360214
 20
3.302303
 30
0.0
 10
3.338786
 20
3.302303
 30
0.0
 10
3.324500
 20
3.309446
 30
0.0
 10
3.317357
 20
3.323732
 30
0.0
 10
3.317357
 20
3.330874
 30
0.0
 10
3.324500
 20
3.345160
 30
0.0
 10
3.338786
 20
3.352303
 30
0.0
 10
3.360214
 20
3.352303
 30
0.0
 10
3.374500
 20
3.345160
 30
0.0
  0
LWPOLYLINE
  5
117
100
AcDbEntity
  8
0
 62
7
100
AcDbPolyline
 90
16
 70
0
 10
3.438786
 20
3.259446
 30
0.0
 10
3.453071
 20
3.252303
 30
0.0
 10
3.481643
 20
3.252303
 30
0.0
 10
3.495929
 20
3.259446
 30
0.0
 10
3.503071
 20
3.273732
 30
0.0
 10
3.503071
 20
3.280874
 30
0.0
 10
3.495929
 20
3.295160
 30
0.0
 10
3.481643
 20
3.302303
 30
0.0
 10
3.460214
 20
3.302303
 30
0.0
 10
3.445929
 20
3.309446
 30
0.0
 10
3.438786
 20
3.323732
 30
0.0
 10
3.438786
 20
3.330874
 30
0.0
 10
3.445929
 20
3.345160
 30
0.0
 10
3.460214
 20
3.352303
 30
0.0
 10
3.481643
 20
3.352303
 30
0.0
 10
3.495929
 20
3.345160
 30
0.0
  0
LWPOLYLINE
  5
118
100
AcDbEntity
  8
0
 62
7
100
AcDbPolyline
 90
2
 70
0
 10
0.863357
 20
3.079446
 30
0.0
 10
0.863357
 20
3.379446
 30
0.0
  0
LWPOLYLINE
  5
119
100
AcDbEntity
  8
0
 62
7
100
AcDbPolyline
 90
4
 70
0
 10
1.006214
 20
3.079446
 30
0.0
 10
1.006214
 20
3.379446
 30
0.0
 10
1.177643
 20
3.079446
 30
0.0
 10
1.177643
 20
3.379446
 30
0.0
  0
ENDSEC
  0
SECTION
  2
OBJECTS
  0
DICTIONARY
  5
C
330
0
100
AcDbDictionary
  3
ACAD_GROUP
350
D
  3
ACAD_MLINESTYLE
350
17
  0
DICTIONARY
  5
D
330
C
100
AcDbDictionary
  0
DICTIONARY
  5
1A
330
C
100
AcDbDictionary
  0
DICTIONARY
  5
17
330
C
100
AcDbDictionary
  3
STANDARD
350
18
  0
DICTIONARY
  5
19
330
C
100
AcDbDictionary
  0
ENDSEC
  0
EOF
