<?xml version="1.0" standalone="no"?>
 <!DOCTYPE svg PUBLIC "-//W3C//DTD SVG 1.1//EN" 
 "http://www.w3.org/Graphics/SVG/1.1/DTD/svg11.dtd"> 
<svg
  xmlns:svg="http://www.w3.org/2000/svg"
  xmlns="http://www.w3.org/2000/svg"
  xmlns:xlink="http://www.w3.org/1999/xlink"
  version="1.1"
  width="10.002520cm" height="3.502660cm" viewBox="0 0 100025200 35026600">
<title>SVG Picture created as two_comparator_effect_panel-F_Silkscreen.svg date 2023/07/12 15:28:18 </title>
  <desc>Picture generated by PCBNEW </desc>
<g style="fill:#000000; fill-opacity:1.000000;stroke:#000000; stroke-opacity:1.000000;
stroke-linecap:round; stroke-linejoin:round;"
 transform="translate(0 0) scale(1 1)">
</g>
<g style="fill:#000000; fill-opacity:0.0; 
stroke:#000000; stroke-width:0.000000; stroke-opacity:1; 
stroke-linecap:round; stroke-linejoin:round;">
</g>
<g style="fill:#000000; fill-opacity:0.0; 
stroke:#000000; stroke-width:120000.000000; stroke-opacity:1; 
stroke-linecap:round; stroke-linejoin:round;">
<path d="M54565000 26135000
L61265000 26135000
" />
<path d="M45065000 26135000
L38865000 26135000
" />
</g>
<g style="fill:#000000; fill-opacity:0.0; 
stroke:#000000; stroke-width:350000.000000; stroke-opacity:1; 
stroke-linecap:round; stroke-linejoin:round;">
<text x="88665000.000000" y="4765000.000000"
textLength="8571430.000000" font-size="4000000.000000" lengthAdjust="spacingAndGlyphs"
text-anchor="middle" opacity="0">OUT</text>
<g class="stroked-text"><desc>OUT</desc>
<path d="M85665000 1622142
L86236428 1622142
L86522142 1765000
L86807857 2050714
L86950714 2622142
L86950714 3622142
L86807857 4193571
L86522142 4479285
L86236428 4622142
L85665000 4622142
L85379285 4479285
L85093571 4193571
L84950714 3622142
L84950714 2622142
L85093571 2050714
L85379285 1765000
L85665000 1622142
" />
<path d="M88236428 1622142
L88236428 4050714
L88379285 4336428
L88522142 4479285
L88807857 4622142
L89379285 4622142
L89665000 4479285
L89807857 4336428
L89950714 4050714
L89950714 1622142
" />
<path d="M90950714 1622142
L92665000 1622142
" />
<path d="M91807857 4622142
L91807857 1622142
" />
</g></g>
<g style="fill:#000000; fill-opacity:0.0; 
stroke:#000000; stroke-width:250000.000000; stroke-opacity:1; 
stroke-linecap:round; stroke-linejoin:round;">
<text x="49805000.000000" y="2975000.000000"
textLength="4074048.000000" font-size="2666666.000000" lengthAdjust="spacingAndGlyphs"
text-anchor="middle" opacity="0">5V</text>
<g class="stroked-text"><desc>5V</desc>
<path d="M49424047 879761
L48471666 879761
L48376428 1832142
L48471666 1736904
L48662142 1641666
L49138333 1641666
L49328809 1736904
L49424047 1832142
L49519285 2022619
L49519285 2498809
L49424047 2689285
L49328809 2784523
L49138333 2879761
L48662142 2879761
L48471666 2784523
L48376428 2689285
" />
<path d="M50090714 879761
L50757380 2879761
L51424047 879761
" />
</g><text x="49785000.000000" y="27005000.000000"
textLength="8991667.000000" font-size="2666666.000000" lengthAdjust="spacingAndGlyphs"
text-anchor="middle" opacity="0">levels</text>
<g class="stroked-text"><desc>levels</desc>
<path d="M46213571 26909761
L46023095 26814523
L45927857 26624047
L45927857 24909761
" />
<path d="M47737380 26814523
L47546904 26909761
L47165952 26909761
L46975476 26814523
L46880238 26624047
L46880238 25862142
L46975476 25671666
L47165952 25576428
L47546904 25576428
L47737380 25671666
L47832619 25862142
L47832619 26052619
L46880238 26243095
" />
<path d="M48499285 25576428
L48975476 26909761
L49451666 25576428
" />
<path d="M50975476 26814523
L50785000 26909761
L50404047 26909761
L50213571 26814523
L50118333 26624047
L50118333 25862142
L50213571 25671666
L50404047 25576428
L50785000 25576428
L50975476 25671666
L51070714 25862142
L51070714 26052619
L50118333 26243095
" />
<path d="M52213571 26909761
L52023095 26814523
L51927857 26624047
L51927857 24909761
" />
<path d="M52880238 26814523
L53070714 26909761
L53451666 26909761
L53642142 26814523
L53737380 26624047
L53737380 26528809
L53642142 26338333
L53451666 26243095
L53165952 26243095
L52975476 26147857
L52880238 25957380
L52880238 25862142
L52975476 25671666
L53165952 25576428
L53451666 25576428
L53642142 25671666
" />
</g></g>
<g style="fill:#000000; fill-opacity:0.0; 
stroke:#000000; stroke-width:200000.000000; stroke-opacity:1; 
stroke-linecap:round; stroke-linejoin:round;">
<text x="31495000.000000" y="2575000.000000"
textLength="7967857.000000" font-size="2000000.000000" lengthAdjust="spacingAndGlyphs"
text-anchor="middle" opacity="0">bypass</text>
<g class="stroked-text"><desc>bypass</desc>
<path d="M28030714 2503571
L28030714 1003571
" />
<path d="M28030714 1575000
L28173571 1503571
L28459285 1503571
L28602142 1575000
L28673571 1646428
L28745000 1789285
L28745000 2217857
L28673571 2360714
L28602142 2432142
L28459285 2503571
L28173571 2503571
L28030714 2432142
" />
<path d="M29245000 1503571
L29602142 2503571
" />
<path d="M29959285 1503571
L29602142 2503571
L29459285 2860714
L29387857 2932142
L29245000 3003571
" />
<path d="M30530714 1503571
L30530714 3003571
" />
<path d="M30530714 1575000
L30673571 1503571
L30959285 1503571
L31102142 1575000
L31173571 1646428
L31245000 1789285
L31245000 2217857
L31173571 2360714
L31102142 2432142
L30959285 2503571
L30673571 2503571
L30530714 2432142
" />
<path d="M32530714 2503571
L32530714 1717857
L32459285 1575000
L32316428 1503571
L32030714 1503571
L31887857 1575000
" />
<path d="M32530714 2432142
L32387857 2503571
L32030714 2503571
L31887857 2432142
L31816428 2289285
L31816428 2146428
L31887857 2003571
L32030714 1932142
L32387857 1932142
L32530714 1860714
" />
<path d="M33173571 2432142
L33316428 2503571
L33602142 2503571
L33745000 2432142
L33816428 2289285
L33816428 2217857
L33745000 2075000
L33602142 2003571
L33387857 2003571
L33245000 1932142
L33173571 1789285
L33173571 1717857
L33245000 1575000
L33387857 1503571
L33602142 1503571
L33745000 1575000
" />
<path d="M34387857 2432142
L34530714 2503571
L34816428 2503571
L34959285 2432142
L35030714 2289285
L35030714 2217857
L34959285 2075000
L34816428 2003571
L34602142 2003571
L34459285 1932142
L34387857 1789285
L34387857 1717857
L34459285 1575000
L34602142 1503571
L34816428 1503571
L34959285 1575000
" />
</g></g>
<g style="fill:#000000; fill-opacity:0.0; 
stroke:#000000; stroke-width:350000.000000; stroke-opacity:1; 
stroke-linecap:round; stroke-linejoin:round;">
<text x="10205000.000000" y="4375000.000000"
textLength="4831429.000000" font-size="4000000.000000" lengthAdjust="spacingAndGlyphs"
text-anchor="middle" opacity="0">IN</text>
<g class="stroked-text"><desc>IN</desc>
<path d="M8633571 4232142
L8633571 1232142
" />
<path d="M10062142 4232142
L10062142 1232142
L11776428 4232142
L11776428 1232142
" />
</g><g >
</g>
<g >
</g>
<g >
</g>
</g> 
</svg>
