  0
SECTION
  2
HEADER
  9
$ACADVER
  1
AC1014
  9
$HANDSEED
  5
FFFF
  9
$INSUNITS
 70
     5
  9
$MEASUREMENT
 70
     1
  0
ENDSEC
  0
SECTION
  2
TABLES
  0
TABLE
  2
VPORT
  5
8
330
0
100
AcDbSymbolTable
 70
     4
  0
VPORT
  5
2E
330
8
100
AcDbSymbolTableRecord
100
AcDbViewportTableRecord
  2
*ACTIVE
 70
     0
 10
0.0
 20
0.0
 11
1.0
 21
1.0
 12
210.0
 22
148.5
 13
0.0
 23
0.0
 14
10.0
 24
10.0
 15
10.0
 25
10.0
 16
0.0
 26
0.0
 36
1.0
 17
0.0
 27
0.0
 37
0.0
 40
341.0
 41
1.24
 42
50.0
 43
0.0
 44
0.0
 50
0.0
 51
0.0
 71
     0
 72
   100
 73
     1
 74
     3
 75
     0
 76
     0
 77
     0
 78
     0
  0
ENDTAB
  0
TABLE
  2
LTYPE
  5
5
330
0
100
AcDbSymbolTable
 70
     1
  0
LTYPE
  5
14
330
5
100
AcDbSymbolTableRecord
100
AcDbLinetypeTableRecord
  2
BYBLOCK
 70
     0
  3

 72
    65
 73
     0
 40
0.0
  0
LTYPE
  5
15
330
5
100
AcDbSymbolTableRecord
100
AcDbLinetypeTableRecord
  2
BYLAYER
 70
     0
  3

 72
    65
 73
     0
 40
0.0
  0
LTYPE
  5
16
330
5
100
AcDbSymbolTableRecord
100
AcDbLinetypeTableRecord
  2
CONTINUOUS
 70
     0
  3
Solid line
 72
    65
 73
     0
 40
0.0
  0
ENDTAB
  0
TABLE
  2
LAYER
  5
2
100
AcDbSymbolTable
 70
1
  0
LAYER
  5
50
100
AcDbSymbolTableRecord
100
AcDbLayerTableRecord
  2
0
 70
0
  6
CONTINUOUS
  0
ENDTAB
  0
TABLE
  2
STYLE
  5
3
330
0
100
AcDbSymbolTable
 70
     1
  0
STYLE
  5
11
330
3
100
AcDbSymbolTableRecord
100
AcDbTextStyleTableRecord
  2
STANDARD
 70
     0
 40
0.0
 41
1.0
 50
0.0
 71
     0
 42
2.5
  3
txt
  4

  0
ENDTAB
  0
TABLE
  2
VIEW
  5
6
330
0
100
AcDbSymbolTable
 70
     0
  0
ENDTAB
  0
TABLE
  2
UCS
  5
7
330
0
100
AcDbSymbolTable
 70
     0
  0
ENDTAB
  0
TABLE
  2
APPID
  5
9
330
0
100
AcDbSymbolTable
 70
     2
  0
APPID
  5
12
330
9
100
AcDbSymbolTableRecord
100
AcDbRegAppTableRecord
  2
ACAD
 70
     0
  0
ENDTAB
  0
TABLE
  2
DIMSTYLE
  5
A
330
0
100
AcDbSymbolTable
 70
     1
  0
DIMSTYLE
105
27
330
A
100
AcDbSymbolTableRecord
100
AcDbDimStyleTableRecord
  2
ISO-25
 70
     0
  3

  4

  5

  6

  7

 40
1.0
 41
2.5
 42
0.625
 43
3.75
 44
1.25
 45
0.0
 46
0.0
 47
0.0
 48
0.0
140
2.5
141
2.5
142
0.0
143
0.03937007874016
144
1.0
145
0.0
146
1.0
147
0.625
 71
     0
 72
     0
 73
     0
 74
     0
 75
     0
 76
     0
 77
     1
 78
     8
170
     0
171
     3
172
     1
173
     0
174
     0
175
     0
176
     0
177
     0
178
     0
270
     2
271
     2
272
     2
273
     2
274
     3
340
11
275
     0
280
     0
281
     0
282
     0
283
     0
284
     8
285
     0
286
     0
287
     3
288
     0
  0
ENDTAB
  0
TABLE
  2
BLOCK_RECORD
  5
1
330
0
100
AcDbSymbolTable
 70
     1
  0
BLOCK_RECORD
  5
1F
330
1
100
AcDbSymbolTableRecord
100
AcDbBlockTableRecord
  2
*MODEL_SPACE
  0
BLOCK_RECORD
  5
1B
330
1
100
AcDbSymbolTableRecord
100
AcDbBlockTableRecord
  2
*PAPER_SPACE
  0
ENDTAB
  0
ENDSEC
  0
SECTION
  2
BLOCKS
  0
BLOCK
  5
20
330
1F
100
AcDbEntity
  8
0
100
AcDbBlockBegin
  2
*MODEL_SPACE
 70
     0
 10
0.0
 20
0.0
 30
0.0
  3
*MODEL_SPACE
  1

  0
ENDBLK
  5
21
330
1F
100
AcDbEntity
  8
0
100
AcDbBlockEnd
  0
BLOCK
  5
1C
330
1B
100
AcDbEntity
 67
     1
  8
0
100
AcDbBlockBegin
  2
*PAPER_SPACE
  1

  0
ENDBLK
  5
1D
330
1B
100
AcDbEntity
 67
     1
  8
0
100
AcDbBlockEnd
  0
ENDSEC
  0
SECTION
  2
ENTITIES
  0
LWPOLYLINE
  5
100
100
AcDbEntity
  8
0
 62
7
100
AcDbPolyline
 90
2
 70
0
 10
0.002500
 20
0.000160
 30
0.0
 10
0.002500
 20
3.500160
 30
0.0
  0
SPLINE
  5
101
100
AcDbEntity
  8
0
 62
7
100
AcDbSpline
 70
8
 71
3
 72
8
 73
4
 74
0
 40
0
 40
0
 40
0
 40
0
 40
1
 40
1
 40
1
 40
1
 10
3.121500
 20
1.341160
 30
0.0
 10
2.954192
 20
1.341160
 30
0.0
 10
2.803359
 20
1.240376
 30
0.0
 10
2.739333
 20
1.085804
 30
0.0
  0
SPLINE
  5
102
100
AcDbEntity
  8
0
 62
7
100
AcDbSpline
 70
8
 71
3
 72
8
 73
4
 74
0
 40
0
 40
0
 40
0
 40
0
 40
1
 40
1
 40
1
 40
1
 10
2.739333
 20
1.085804
 30
0.0
 10
2.675307
 20
0.931232
 30
0.0
 10
2.710698
 20
0.753312
 30
0.0
 10
2.829002
 20
0.635008
 30
0.0
  0
SPLINE
  5
103
100
AcDbEntity
  8
0
 62
7
100
AcDbSpline
 70
8
 71
3
 72
8
 73
4
 74
0
 40
0
 40
0
 40
0
 40
0
 40
1
 40
1
 40
1
 40
1
 10
2.829002
 20
0.635008
 30
0.0
 10
2.947306
 20
0.516703
 30
0.0
 10
3.125227
 20
0.481313
 30
0.0
 10
3.279799
 20
0.545338
 30
0.0
  0
SPLINE
  5
104
100
AcDbEntity
  8
0
 62
7
100
AcDbSpline
 70
8
 71
3
 72
8
 73
4
 74
0
 40
0
 40
0
 40
0
 40
0
 40
1
 40
1
 40
1
 40
1
 10
3.279799
 20
0.545338
 30
0.0
 10
3.434371
 20
0.609364
 30
0.0
 10
3.535155
 20
0.760198
 30
0.0
 10
3.535155
 20
0.927506
 30
0.0
  0
SPLINE
  5
105
100
AcDbEntity
  8
0
 62
7
100
AcDbSpline
 70
8
 71
3
 72
8
 73
4
 74
0
 40
0
 40
0
 40
0
 40
0
 40
1
 40
1
 40
1
 40
1
 10
3.535155
 20
0.927506
 30
0.0
 10
3.535155
 20
1.037214
 30
0.0
 10
3.491573
 20
1.142428
 30
0.0
 10
3.413998
 20
1.220003
 30
0.0
  0
SPLINE
  5
106
100
AcDbEntity
  8
0
 62
7
100
AcDbSpline
 70
8
 71
3
 72
8
 73
4
 74
0
 40
0
 40
0
 40
0
 40
0
 40
1
 40
1
 40
1
 40
1
 10
3.413998
 20
1.220003
 30
0.0
 10
3.336423
 20
1.297579
 30
0.0
 10
3.231208
 20
1.341160
 30
0.0
 10
3.121500
 20
1.341160
 30
0.0
  0
LWPOLYLINE
  5
107
100
AcDbEntity
  8
0
 62
7
100
AcDbPolyline
 90
2
 70
0
 10
10.002500
 20
0.000160
 30
0.0
 10
0.002500
 20
0.000160
 30
0.0
  0
SPLINE
  5
108
100
AcDbEntity
  8
0
 62
7
100
AcDbSpline
 70
8
 71
3
 72
8
 73
4
 74
0
 40
0
 40
0
 40
0
 40
0
 40
1
 40
1
 40
1
 40
1
 10
0.893500
 20
2.988160
 30
0.0
 10
0.630600
 20
2.988160
 30
0.0
 10
0.393586
 20
2.829793
 30
0.0
 10
0.292978
 20
2.586904
 30
0.0
  0
SPLINE
  5
109
100
AcDbEntity
  8
0
 62
7
100
AcDbSpline
 70
8
 71
3
 72
8
 73
4
 74
0
 40
0
 40
0
 40
0
 40
0
 40
1
 40
1
 40
1
 40
1
 10
0.292978
 20
2.586904
 30
0.0
 10
0.192371
 20
2.344016
 30
0.0
 10
0.247982
 20
2.064439
 30
0.0
 10
0.433881
 20
1.878541
 30
0.0
  0
SPLINE
  5
10a
100
AcDbEntity
  8
0
 62
7
100
AcDbSpline
 70
8
 71
3
 72
8
 73
4
 74
0
 40
0
 40
0
 40
0
 40
0
 40
1
 40
1
 40
1
 40
1
 10
0.433881
 20
1.878541
 30
0.0
 10
0.619779
 20
1.692642
 30
0.0
 10
0.899356
 20
1.637031
 30
0.0
 10
1.142244
 20
1.737638
 30
0.0
  0
SPLINE
  5
10b
100
AcDbEntity
  8
0
 62
7
100
AcDbSpline
 70
8
 71
3
 72
8
 73
4
 74
0
 40
0
 40
0
 40
0
 40
0
 40
1
 40
1
 40
1
 40
1
 10
1.142244
 20
1.737638
 30
0.0
 10
1.385133
 20
1.838246
 30
0.0
 10
1.543500
 20
2.075260
 30
0.0
 10
1.543500
 20
2.338160
 30
0.0
  0
SPLINE
  5
10c
100
AcDbEntity
  8
0
 62
7
100
AcDbSpline
 70
8
 71
3
 72
8
 73
4
 74
0
 40
0
 40
0
 40
0
 40
0
 40
1
 40
1
 40
1
 40
1
 10
1.543500
 20
2.338160
 30
0.0
 10
1.543500
 20
2.510551
 30
0.0
 10
1.475018
 20
2.675881
 30
0.0
 10
1.353119
 20
2.797779
 30
0.0
  0
SPLINE
  5
10d
100
AcDbEntity
  8
0
 62
7
100
AcDbSpline
 70
8
 71
3
 72
8
 73
4
 74
0
 40
0
 40
0
 40
0
 40
0
 40
1
 40
1
 40
1
 40
1
 10
1.353119
 20
2.797779
 30
0.0
 10
1.231221
 20
2.919678
 30
0.0
 10
1.065891
 20
2.988160
 30
0.0
 10
0.893500
 20
2.988160
 30
0.0
  0
LWPOLYLINE
  5
10e
100
AcDbEntity
  8
0
 62
7
100
AcDbPolyline
 90
1
 70
1
 10
3.121500
 20
1.341160
 30
0.0
  0
SPLINE
  5
10f
100
AcDbEntity
  8
0
 62
7
100
AcDbSpline
 70
8
 71
3
 72
8
 73
4
 74
0
 40
0
 40
0
 40
0
 40
0
 40
1
 40
1
 40
1
 40
1
 10
9.120500
 20
2.946160
 30
0.0
 10
8.857600
 20
2.946160
 30
0.0
 10
8.620586
 20
2.787793
 30
0.0
 10
8.519978
 20
2.544904
 30
0.0
  0
SPLINE
  5
110
100
AcDbEntity
  8
0
 62
7
100
AcDbSpline
 70
8
 71
3
 72
8
 73
4
 74
0
 40
0
 40
0
 40
0
 40
0
 40
1
 40
1
 40
1
 40
1
 10
8.519978
 20
2.544904
 30
0.0
 10
8.419371
 20
2.302016
 30
0.0
 10
8.474982
 20
2.022439
 30
0.0
 10
8.660881
 20
1.836541
 30
0.0
  0
SPLINE
  5
111
100
AcDbEntity
  8
0
 62
7
100
AcDbSpline
 70
8
 71
3
 72
8
 73
4
 74
0
 40
0
 40
0
 40
0
 40
0
 40
1
 40
1
 40
1
 40
1
 10
8.660881
 20
1.836541
 30
0.0
 10
8.846779
 20
1.650642
 30
0.0
 10
9.126356
 20
1.595031
 30
0.0
 10
9.369244
 20
1.695638
 30
0.0
  0
SPLINE
  5
112
100
AcDbEntity
  8
0
 62
7
100
AcDbSpline
 70
8
 71
3
 72
8
 73
4
 74
0
 40
0
 40
0
 40
0
 40
0
 40
1
 40
1
 40
1
 40
1
 10
9.369244
 20
1.695638
 30
0.0
 10
9.612133
 20
1.796246
 30
0.0
 10
9.770500
 20
2.033260
 30
0.0
 10
9.770500
 20
2.296160
 30
0.0
  0
SPLINE
  5
113
100
AcDbEntity
  8
0
 62
7
100
AcDbSpline
 70
8
 71
3
 72
8
 73
4
 74
0
 40
0
 40
0
 40
0
 40
0
 40
1
 40
1
 40
1
 40
1
 10
9.770500
 20
2.296160
 30
0.0
 10
9.770500
 20
2.468551
 30
0.0
 10
9.702018
 20
2.633881
 30
0.0
 10
9.580119
 20
2.755779
 30
0.0
  0
SPLINE
  5
114
100
AcDbEntity
  8
0
 62
7
100
AcDbSpline
 70
8
 71
3
 72
8
 73
4
 74
0
 40
0
 40
0
 40
0
 40
0
 40
1
 40
1
 40
1
 40
1
 10
9.580119
 20
2.755779
 30
0.0
 10
9.458221
 20
2.877678
 30
0.0
 10
9.292891
 20
2.946160
 30
0.0
 10
9.120500
 20
2.946160
 30
0.0
  0
LWPOLYLINE
  5
115
100
AcDbEntity
  8
0
 62
7
100
AcDbPolyline
 90
1
 70
1
 10
0.893500
 20
2.988160
 30
0.0
  0
SPLINE
  5
116
100
AcDbEntity
  8
0
 62
7
100
AcDbSpline
 70
8
 71
3
 72
8
 73
4
 74
0
 40
0
 40
0
 40
0
 40
0
 40
1
 40
1
 40
1
 40
1
 10
2.433500
 20
3.319809
 30
0.0
 10
2.258650
 20
3.319809
 30
0.0
 10
2.101016
 20
3.214482
 30
0.0
 10
2.034104
 20
3.052941
 30
0.0
  0
SPLINE
  5
117
100
AcDbEntity
  8
0
 62
7
100
AcDbSpline
 70
8
 71
3
 72
8
 73
4
 74
0
 40
0
 40
0
 40
0
 40
0
 40
1
 40
1
 40
1
 40
1
 10
2.034104
 20
3.052941
 30
0.0
 10
1.967191
 20
2.891400
 30
0.0
 10
2.004177
 20
2.705459
 30
0.0
 10
2.127815
 20
2.581821
 30
0.0
  0
SPLINE
  5
118
100
AcDbEntity
  8
0
 62
7
100
AcDbSpline
 70
8
 71
3
 72
8
 73
4
 74
0
 40
0
 40
0
 40
0
 40
0
 40
1
 40
1
 40
1
 40
1
 10
2.127815
 20
2.581821
 30
0.0
 10
2.251453
 20
2.458183
 30
0.0
 10
2.437395
 20
2.421197
 30
0.0
 10
2.598935
 20
2.488109
 30
0.0
  0
SPLINE
  5
119
100
AcDbEntity
  8
0
 62
7
100
AcDbSpline
 70
8
 71
3
 72
8
 73
4
 74
0
 40
0
 40
0
 40
0
 40
0
 40
1
 40
1
 40
1
 40
1
 10
2.598935
 20
2.488109
 30
0.0
 10
2.760476
 20
2.555022
 30
0.0
 10
2.865803
 20
2.712655
 30
0.0
 10
2.865803
 20
2.887506
 30
0.0
  0
SPLINE
  5
11a
100
AcDbEntity
  8
0
 62
7
100
AcDbSpline
 70
8
 71
3
 72
8
 73
4
 74
0
 40
0
 40
0
 40
0
 40
0
 40
1
 40
1
 40
1
 40
1
 10
2.865803
 20
2.887506
 30
0.0
 10
2.865803
 20
3.002159
 30
0.0
 10
2.820257
 20
3.112118
 30
0.0
 10
2.739185
 20
3.193190
 30
0.0
  0
SPLINE
  5
11b
100
AcDbEntity
  8
0
 62
7
100
AcDbSpline
 70
8
 71
3
 72
8
 73
4
 74
0
 40
0
 40
0
 40
0
 40
0
 40
1
 40
1
 40
1
 40
1
 10
2.739185
 20
3.193190
 30
0.0
 10
2.658112
 20
3.274263
 30
0.0
 10
2.548154
 20
3.319809
 30
0.0
 10
2.433500
 20
3.319809
 30
0.0
  0
LWPOLYLINE
  5
11c
100
AcDbEntity
  8
0
 62
7
100
AcDbPolyline
 90
1
 70
1
 10
9.120500
 20
2.946160
 30
0.0
  0
SPLINE
  5
11d
100
AcDbEntity
  8
0
 62
7
100
AcDbSpline
 70
8
 71
3
 72
8
 73
4
 74
0
 40
0
 40
0
 40
0
 40
0
 40
1
 40
1
 40
1
 40
1
 10
0.352500
 20
0.526937
 30
0.0
 10
0.281000
 20
0.526937
 30
0.0
 10
0.216541
 20
0.483866
 30
0.0
 10
0.189180
 20
0.417810
 30
0.0
  0
SPLINE
  5
11e
100
AcDbEntity
  8
0
 62
7
100
AcDbSpline
 70
8
 71
3
 72
8
 73
4
 74
0
 40
0
 40
0
 40
0
 40
0
 40
1
 40
1
 40
1
 40
1
 10
0.189180
 20
0.417810
 30
0.0
 10
0.161818
 20
0.351753
 30
0.0
 10
0.176942
 20
0.275718
 30
0.0
 10
0.227500
 20
0.225160
 30
0.0
  0
SPLINE
  5
11f
100
AcDbEntity
  8
0
 62
7
100
AcDbSpline
 70
8
 71
3
 72
8
 73
4
 74
0
 40
0
 40
0
 40
0
 40
0
 40
1
 40
1
 40
1
 40
1
 10
0.227500
 20
0.225160
 30
0.0
 10
0.278058
 20
0.174602
 30
0.0
 10
0.354093
 20
0.159478
 30
0.0
 10
0.420150
 20
0.186840
 30
0.0
  0
SPLINE
  5
120
100
AcDbEntity
  8
0
 62
7
100
AcDbSpline
 70
8
 71
3
 72
8
 73
4
 74
0
 40
0
 40
0
 40
0
 40
0
 40
1
 40
1
 40
1
 40
1
 10
0.420150
 20
0.186840
 30
0.0
 10
0.486206
 20
0.214201
 30
0.0
 10
0.529277
 20
0.278660
 30
0.0
 10
0.529277
 20
0.350160
 30
0.0
  0
SPLINE
  5
121
100
AcDbEntity
  8
0
 62
7
100
AcDbSpline
 70
8
 71
3
 72
8
 73
4
 74
0
 40
0
 40
0
 40
0
 40
0
 40
1
 40
1
 40
1
 40
1
 10
0.529277
 20
0.350160
 30
0.0
 10
0.529277
 20
0.397044
 30
0.0
 10
0.510652
 20
0.442008
 30
0.0
 10
0.477500
 20
0.475160
 30
0.0
  0
SPLINE
  5
122
100
AcDbEntity
  8
0
 62
7
100
AcDbSpline
 70
8
 71
3
 72
8
 73
4
 74
0
 40
0
 40
0
 40
0
 40
0
 40
1
 40
1
 40
1
 40
1
 10
0.477500
 20
0.475160
 30
0.0
 10
0.444348
 20
0.508312
 30
0.0
 10
0.399384
 20
0.526937
 30
0.0
 10
0.352500
 20
0.526937
 30
0.0
  0
LWPOLYLINE
  5
123
100
AcDbEntity
  8
0
 62
7
100
AcDbPolyline
 90
1
 70
1
 10
2.433500
 20
3.319809
 30
0.0
  0
LWPOLYLINE
  5
124
100
AcDbEntity
  8
0
 62
7
100
AcDbPolyline
 90
1
 70
1
 10
0.352500
 20
0.526937
 30
0.0
  0
SPLINE
  5
125
100
AcDbEntity
  8
0
 62
7
100
AcDbSpline
 70
8
 71
3
 72
8
 73
4
 74
0
 40
0
 40
0
 40
0
 40
0
 40
1
 40
1
 40
1
 40
1
 10
6.882354
 20
1.354815
 30
0.0
 10
6.715046
 20
1.354815
 30
0.0
 10
6.564212
 20
1.254031
 30
0.0
 10
6.500186
 20
1.099459
 30
0.0
  0
SPLINE
  5
126
100
AcDbEntity
  8
0
 62
7
100
AcDbSpline
 70
8
 71
3
 72
8
 73
4
 74
0
 40
0
 40
0
 40
0
 40
0
 40
1
 40
1
 40
1
 40
1
 10
6.500186
 20
1.099459
 30
0.0
 10
6.436161
 20
0.944887
 30
0.0
 10
6.471551
 20
0.766966
 30
0.0
 10
6.589856
 20
0.648662
 30
0.0
  0
SPLINE
  5
127
100
AcDbEntity
  8
0
 62
7
100
AcDbSpline
 70
8
 71
3
 72
8
 73
4
 74
0
 40
0
 40
0
 40
0
 40
0
 40
1
 40
1
 40
1
 40
1
 10
6.589856
 20
0.648662
 30
0.0
 10
6.708160
 20
0.530358
 30
0.0
 10
6.886080
 20
0.494967
 30
0.0
 10
7.040652
 20
0.558993
 30
0.0
  0
SPLINE
  5
128
100
AcDbEntity
  8
0
 62
7
100
AcDbSpline
 70
8
 71
3
 72
8
 73
4
 74
0
 40
0
 40
0
 40
0
 40
0
 40
1
 40
1
 40
1
 40
1
 10
7.040652
 20
0.558993
 30
0.0
 10
7.195224
 20
0.623019
 30
0.0
 10
7.296008
 20
0.773852
 30
0.0
 10
7.296008
 20
0.941160
 30
0.0
  0
SPLINE
  5
129
100
AcDbEntity
  8
0
 62
7
100
AcDbSpline
 70
8
 71
3
 72
8
 73
4
 74
0
 40
0
 40
0
 40
0
 40
0
 40
1
 40
1
 40
1
 40
1
 10
7.296008
 20
0.941160
 30
0.0
 10
7.296008
 20
1.050868
 30
0.0
 10
7.252427
 20
1.156083
 30
0.0
 10
7.174851
 20
1.233658
 30
0.0
  0
SPLINE
  5
12a
100
AcDbEntity
  8
0
 62
7
100
AcDbSpline
 70
8
 71
3
 72
8
 73
4
 74
0
 40
0
 40
0
 40
0
 40
0
 40
1
 40
1
 40
1
 40
1
 10
7.174851
 20
1.233658
 30
0.0
 10
7.097276
 20
1.311233
 30
0.0
 10
6.992062
 20
1.354815
 30
0.0
 10
6.882354
 20
1.354815
 30
0.0
  0
LWPOLYLINE
  5
12b
100
AcDbEntity
  8
0
 62
7
100
AcDbPolyline
 90
3
 70
0
 10
0.002500
 20
3.500160
 30
0.0
 10
10.002500
 20
3.500160
 30
0.0
 10
10.002500
 20
0.000160
 30
0.0
  0
SPLINE
  5
12c
100
AcDbEntity
  8
0
 62
7
100
AcDbSpline
 70
8
 71
3
 72
8
 73
4
 74
0
 40
0
 40
0
 40
0
 40
0
 40
1
 40
1
 40
1
 40
1
 10
0.352500
 20
3.326937
 30
0.0
 10
0.281000
 20
3.326937
 30
0.0
 10
0.216541
 20
3.283866
 30
0.0
 10
0.189180
 20
3.217810
 30
0.0
  0
SPLINE
  5
12d
100
AcDbEntity
  8
0
 62
7
100
AcDbSpline
 70
8
 71
3
 72
8
 73
4
 74
0
 40
0
 40
0
 40
0
 40
0
 40
1
 40
1
 40
1
 40
1
 10
0.189180
 20
3.217810
 30
0.0
 10
0.161818
 20
3.151753
 30
0.0
 10
0.176942
 20
3.075718
 30
0.0
 10
0.227500
 20
3.025160
 30
0.0
  0
SPLINE
  5
12e
100
AcDbEntity
  8
0
 62
7
100
AcDbSpline
 70
8
 71
3
 72
8
 73
4
 74
0
 40
0
 40
0
 40
0
 40
0
 40
1
 40
1
 40
1
 40
1
 10
0.227500
 20
3.025160
 30
0.0
 10
0.278058
 20
2.974602
 30
0.0
 10
0.354093
 20
2.959478
 30
0.0
 10
0.420150
 20
2.986840
 30
0.0
  0
SPLINE
  5
12f
100
AcDbEntity
  8
0
 62
7
100
AcDbSpline
 70
8
 71
3
 72
8
 73
4
 74
0
 40
0
 40
0
 40
0
 40
0
 40
1
 40
1
 40
1
 40
1
 10
0.420150
 20
2.986840
 30
0.0
 10
0.486206
 20
3.014201
 30
0.0
 10
0.529277
 20
3.078660
 30
0.0
 10
0.529277
 20
3.150160
 30
0.0
  0
SPLINE
  5
130
100
AcDbEntity
  8
0
 62
7
100
AcDbSpline
 70
8
 71
3
 72
8
 73
4
 74
0
 40
0
 40
0
 40
0
 40
0
 40
1
 40
1
 40
1
 40
1
 10
0.529277
 20
3.150160
 30
0.0
 10
0.529277
 20
3.197044
 30
0.0
 10
0.510652
 20
3.242008
 30
0.0
 10
0.477500
 20
3.275160
 30
0.0
  0
SPLINE
  5
131
100
AcDbEntity
  8
0
 62
7
100
AcDbSpline
 70
8
 71
3
 72
8
 73
4
 74
0
 40
0
 40
0
 40
0
 40
0
 40
1
 40
1
 40
1
 40
1
 10
0.477500
 20
3.275160
 30
0.0
 10
0.444348
 20
3.308312
 30
0.0
 10
0.399384
 20
3.326937
 30
0.0
 10
0.352500
 20
3.326937
 30
0.0
  0
LWPOLYLINE
  5
132
100
AcDbEntity
  8
0
 62
7
100
AcDbPolyline
 90
1
 70
1
 10
6.882354
 20
1.354815
 30
0.0
  0
SPLINE
  5
133
100
AcDbEntity
  8
0
 62
7
100
AcDbSpline
 70
8
 71
3
 72
8
 73
4
 74
0
 40
0
 40
0
 40
0
 40
0
 40
1
 40
1
 40
1
 40
1
 10
9.652500
 20
3.326937
 30
0.0
 10
9.581000
 20
3.326937
 30
0.0
 10
9.516541
 20
3.283866
 30
0.0
 10
9.489180
 20
3.217810
 30
0.0
  0
SPLINE
  5
134
100
AcDbEntity
  8
0
 62
7
100
AcDbSpline
 70
8
 71
3
 72
8
 73
4
 74
0
 40
0
 40
0
 40
0
 40
0
 40
1
 40
1
 40
1
 40
1
 10
9.489180
 20
3.217810
 30
0.0
 10
9.461818
 20
3.151753
 30
0.0
 10
9.476942
 20
3.075718
 30
0.0
 10
9.527500
 20
3.025160
 30
0.0
  0
SPLINE
  5
135
100
AcDbEntity
  8
0
 62
7
100
AcDbSpline
 70
8
 71
3
 72
8
 73
4
 74
0
 40
0
 40
0
 40
0
 40
0
 40
1
 40
1
 40
1
 40
1
 10
9.527500
 20
3.025160
 30
0.0
 10
9.578058
 20
2.974602
 30
0.0
 10
9.654093
 20
2.959478
 30
0.0
 10
9.720150
 20
2.986840
 30
0.0
  0
SPLINE
  5
136
100
AcDbEntity
  8
0
 62
7
100
AcDbSpline
 70
8
 71
3
 72
8
 73
4
 74
0
 40
0
 40
0
 40
0
 40
0
 40
1
 40
1
 40
1
 40
1
 10
9.720150
 20
2.986840
 30
0.0
 10
9.786206
 20
3.014201
 30
0.0
 10
9.829277
 20
3.078660
 30
0.0
 10
9.829277
 20
3.150160
 30
0.0
  0
SPLINE
  5
137
100
AcDbEntity
  8
0
 62
7
100
AcDbSpline
 70
8
 71
3
 72
8
 73
4
 74
0
 40
0
 40
0
 40
0
 40
0
 40
1
 40
1
 40
1
 40
1
 10
9.829277
 20
3.150160
 30
0.0
 10
9.829277
 20
3.197044
 30
0.0
 10
9.810652
 20
3.242008
 30
0.0
 10
9.777500
 20
3.275160
 30
0.0
  0
SPLINE
  5
138
100
AcDbEntity
  8
0
 62
7
100
AcDbSpline
 70
8
 71
3
 72
8
 73
4
 74
0
 40
0
 40
0
 40
0
 40
0
 40
1
 40
1
 40
1
 40
1
 10
9.777500
 20
3.275160
 30
0.0
 10
9.744348
 20
3.308312
 30
0.0
 10
9.699384
 20
3.326937
 30
0.0
 10
9.652500
 20
3.326937
 30
0.0
  0
LWPOLYLINE
  5
139
100
AcDbEntity
  8
0
 62
7
100
AcDbPolyline
 90
1
 70
1
 10
0.352500
 20
3.326937
 30
0.0
  0
SPLINE
  5
13a
100
AcDbEntity
  8
0
 62
7
100
AcDbSpline
 70
8
 71
3
 72
8
 73
4
 74
0
 40
0
 40
0
 40
0
 40
0
 40
1
 40
1
 40
1
 40
1
 10
9.652500
 20
0.526937
 30
0.0
 10
9.581000
 20
0.526937
 30
0.0
 10
9.516541
 20
0.483866
 30
0.0
 10
9.489180
 20
0.417810
 30
0.0
  0
SPLINE
  5
13b
100
AcDbEntity
  8
0
 62
7
100
AcDbSpline
 70
8
 71
3
 72
8
 73
4
 74
0
 40
0
 40
0
 40
0
 40
0
 40
1
 40
1
 40
1
 40
1
 10
9.489180
 20
0.417810
 30
0.0
 10
9.461818
 20
0.351753
 30
0.0
 10
9.476942
 20
0.275718
 30
0.0
 10
9.527500
 20
0.225160
 30
0.0
  0
SPLINE
  5
13c
100
AcDbEntity
  8
0
 62
7
100
AcDbSpline
 70
8
 71
3
 72
8
 73
4
 74
0
 40
0
 40
0
 40
0
 40
0
 40
1
 40
1
 40
1
 40
1
 10
9.527500
 20
0.225160
 30
0.0
 10
9.578058
 20
0.174602
 30
0.0
 10
9.654093
 20
0.159478
 30
0.0
 10
9.720150
 20
0.186840
 30
0.0
  0
SPLINE
  5
13d
100
AcDbEntity
  8
0
 62
7
100
AcDbSpline
 70
8
 71
3
 72
8
 73
4
 74
0
 40
0
 40
0
 40
0
 40
0
 40
1
 40
1
 40
1
 40
1
 10
9.720150
 20
0.186840
 30
0.0
 10
9.786206
 20
0.214201
 30
0.0
 10
9.829277
 20
0.278660
 30
0.0
 10
9.829277
 20
0.350160
 30
0.0
  0
SPLINE
  5
13e
100
AcDbEntity
  8
0
 62
7
100
AcDbSpline
 70
8
 71
3
 72
8
 73
4
 74
0
 40
0
 40
0
 40
0
 40
0
 40
1
 40
1
 40
1
 40
1
 10
9.829277
 20
0.350160
 30
0.0
 10
9.829277
 20
0.397044
 30
0.0
 10
9.810652
 20
0.442008
 30
0.0
 10
9.777500
 20
0.475160
 30
0.0
  0
SPLINE
  5
13f
100
AcDbEntity
  8
0
 62
7
100
AcDbSpline
 70
8
 71
3
 72
8
 73
4
 74
0
 40
0
 40
0
 40
0
 40
0
 40
1
 40
1
 40
1
 40
1
 10
9.777500
 20
0.475160
 30
0.0
 10
9.744348
 20
0.508312
 30
0.0
 10
9.699384
 20
0.526937
 30
0.0
 10
9.652500
 20
0.526937
 30
0.0
  0
LWPOLYLINE
  5
140
100
AcDbEntity
  8
0
 62
7
100
AcDbPolyline
 90
1
 70
1
 10
9.652500
 20
3.326937
 30
0.0
  0
LWPOLYLINE
  5
141
100
AcDbEntity
  8
0
 62
7
100
AcDbPolyline
 90
1
 70
1
 10
9.652500
 20
0.526937
 30
0.0
  0
ENDSEC
  0
SECTION
  2
OBJECTS
  0
DICTIONARY
  5
C
330
0
100
AcDbDictionary
  3
ACAD_GROUP
350
D
  3
ACAD_MLINESTYLE
350
17
  0
DICTIONARY
  5
D
330
C
100
AcDbDictionary
  0
DICTIONARY
  5
1A
330
C
100
AcDbDictionary
  0
DICTIONARY
  5
17
330
C
100
AcDbDictionary
  3
STANDARD
350
18
  0
DICTIONARY
  5
19
330
C
100
AcDbDictionary
  0
ENDSEC
  0
EOF
