  0
SECTION
  2
HEADER
  9
$ACADVER
  1
AC1014
  9
$HANDSEED
  5
FFFF
  9
$INSUNITS
 70
     5
  9
$MEASUREMENT
 70
     1
  0
ENDSEC
  0
SECTION
  2
TABLES
  0
TABLE
  2
VPORT
  5
8
330
0
100
AcDbSymbolTable
 70
     4
  0
VPORT
  5
2E
330
8
100
AcDbSymbolTableRecord
100
AcDbViewportTableRecord
  2
*ACTIVE
 70
     0
 10
0.0
 20
0.0
 11
1.0
 21
1.0
 12
210.0
 22
148.5
 13
0.0
 23
0.0
 14
10.0
 24
10.0
 15
10.0
 25
10.0
 16
0.0
 26
0.0
 36
1.0
 17
0.0
 27
0.0
 37
0.0
 40
341.0
 41
1.24
 42
50.0
 43
0.0
 44
0.0
 50
0.0
 51
0.0
 71
     0
 72
   100
 73
     1
 74
     3
 75
     0
 76
     0
 77
     0
 78
     0
  0
ENDTAB
  0
TABLE
  2
LTYPE
  5
5
330
0
100
AcDbSymbolTable
 70
     1
  0
LTYPE
  5
14
330
5
100
AcDbSymbolTableRecord
100
AcDbLinetypeTableRecord
  2
BYBLOCK
 70
     0
  3

 72
    65
 73
     0
 40
0.0
  0
LTYPE
  5
15
330
5
100
AcDbSymbolTableRecord
100
AcDbLinetypeTableRecord
  2
BYLAYER
 70
     0
  3

 72
    65
 73
     0
 40
0.0
  0
LTYPE
  5
16
330
5
100
AcDbSymbolTableRecord
100
AcDbLinetypeTableRecord
  2
CONTINUOUS
 70
     0
  3
Solid line
 72
    65
 73
     0
 40
0.0
  0
ENDTAB
  0
TABLE
  2
LAYER
  5
2
100
AcDbSymbolTable
 70
1
  0
LAYER
  5
50
100
AcDbSymbolTableRecord
100
AcDbLayerTableRecord
  2
0
 70
0
  6
CONTINUOUS
  0
ENDTAB
  0
TABLE
  2
STYLE
  5
3
330
0
100
AcDbSymbolTable
 70
     1
  0
STYLE
  5
11
330
3
100
AcDbSymbolTableRecord
100
AcDbTextStyleTableRecord
  2
STANDARD
 70
     0
 40
0.0
 41
1.0
 50
0.0
 71
     0
 42
2.5
  3
txt
  4

  0
ENDTAB
  0
TABLE
  2
VIEW
  5
6
330
0
100
AcDbSymbolTable
 70
     0
  0
ENDTAB
  0
TABLE
  2
UCS
  5
7
330
0
100
AcDbSymbolTable
 70
     0
  0
ENDTAB
  0
TABLE
  2
APPID
  5
9
330
0
100
AcDbSymbolTable
 70
     2
  0
APPID
  5
12
330
9
100
AcDbSymbolTableRecord
100
AcDbRegAppTableRecord
  2
ACAD
 70
     0
  0
ENDTAB
  0
TABLE
  2
DIMSTYLE
  5
A
330
0
100
AcDbSymbolTable
 70
     1
  0
DIMSTYLE
105
27
330
A
100
AcDbSymbolTableRecord
100
AcDbDimStyleTableRecord
  2
ISO-25
 70
     0
  3

  4

  5

  6

  7

 40
1.0
 41
2.5
 42
0.625
 43
3.75
 44
1.25
 45
0.0
 46
0.0
 47
0.0
 48
0.0
140
2.5
141
2.5
142
0.0
143
0.03937007874016
144
1.0
145
0.0
146
1.0
147
0.625
 71
     0
 72
     0
 73
     0
 74
     0
 75
     0
 76
     0
 77
     1
 78
     8
170
     0
171
     3
172
     1
173
     0
174
     0
175
     0
176
     0
177
     0
178
     0
270
     2
271
     2
272
     2
273
     2
274
     3
340
11
275
     0
280
     0
281
     0
282
     0
283
     0
284
     8
285
     0
286
     0
287
     3
288
     0
  0
ENDTAB
  0
TABLE
  2
BLOCK_RECORD
  5
1
330
0
100
AcDbSymbolTable
 70
     1
  0
BLOCK_RECORD
  5
1F
330
1
100
AcDbSymbolTableRecord
100
AcDbBlockTableRecord
  2
*MODEL_SPACE
  0
BLOCK_RECORD
  5
1B
330
1
100
AcDbSymbolTableRecord
100
AcDbBlockTableRecord
  2
*PAPER_SPACE
  0
ENDTAB
  0
ENDSEC
  0
SECTION
  2
BLOCKS
  0
BLOCK
  5
20
330
1F
100
AcDbEntity
  8
0
100
AcDbBlockBegin
  2
*MODEL_SPACE
 70
     0
 10
0.0
 20
0.0
 30
0.0
  3
*MODEL_SPACE
  1

  0
ENDBLK
  5
21
330
1F
100
AcDbEntity
  8
0
100
AcDbBlockEnd
  0
BLOCK
  5
1C
330
1B
100
AcDbEntity
 67
     1
  8
0
100
AcDbBlockBegin
  2
*PAPER_SPACE
  1

  0
ENDBLK
  5
1D
330
1B
100
AcDbEntity
 67
     1
  8
0
100
AcDbBlockEnd
  0
ENDSEC
  0
SECTION
  2
ENTITIES
  0
LWPOLYLINE
  5
100
100
AcDbEntity
  8
0
 62
7
100
AcDbPolyline
 90
2
 70
0
 10
0.891500
 20
5.973440
 30
0.0
 10
0.891500
 20
5.303440
 30
0.0
  0
LWPOLYLINE
  5
101
100
AcDbEntity
  8
0
 62
7
100
AcDbPolyline
 90
2
 70
0
 10
0.891500
 20
6.923440
 30
0.0
 10
0.891500
 20
7.543440
 30
0.0
  0
LWPOLYLINE
  5
102
100
AcDbEntity
  8
0
 62
7
100
AcDbPolyline
 90
3
 70
0
 10
0.356071
 20
6.341726
 30
0.0
 10
0.213214
 20
6.341726
 30
0.0
 10
0.213214
 20
6.641726
 30
0.0
  0
LWPOLYLINE
  5
103
100
AcDbEntity
  8
0
 62
7
100
AcDbPolyline
 90
2
 70
0
 10
0.456071
 20
6.498869
 30
0.0
 10
0.556071
 20
6.498869
 30
0.0
  0
LWPOLYLINE
  5
104
100
AcDbEntity
  8
0
 62
7
100
AcDbPolyline
 90
4
 70
0
 10
0.598929
 20
6.341726
 30
0.0
 10
0.456071
 20
6.341726
 30
0.0
 10
0.456071
 20
6.641726
 30
0.0
 10
0.598929
 20
6.641726
 30
0.0
  0
LWPOLYLINE
  5
105
100
AcDbEntity
  8
0
 62
7
100
AcDbPolyline
 90
3
 70
0
 10
0.684643
 20
6.641726
 30
0.0
 10
0.784643
 20
6.341726
 30
0.0
 10
0.884643
 20
6.641726
 30
0.0
  0
LWPOLYLINE
  5
106
100
AcDbEntity
  8
0
 62
7
100
AcDbPolyline
 90
2
 70
0
 10
0.984643
 20
6.498869
 30
0.0
 10
1.084643
 20
6.498869
 30
0.0
  0
LWPOLYLINE
  5
107
100
AcDbEntity
  8
0
 62
7
100
AcDbPolyline
 90
4
 70
0
 10
1.127500
 20
6.341726
 30
0.0
 10
0.984643
 20
6.341726
 30
0.0
 10
0.984643
 20
6.641726
 30
0.0
 10
1.127500
 20
6.641726
 30
0.0
  0
LWPOLYLINE
  5
108
100
AcDbEntity
  8
0
 62
7
100
AcDbPolyline
 90
3
 70
0
 10
1.398929
 20
6.341726
 30
0.0
 10
1.256071
 20
6.341726
 30
0.0
 10
1.256071
 20
6.641726
 30
0.0
  0
LWPOLYLINE
  5
109
100
AcDbEntity
  8
0
 62
7
100
AcDbPolyline
 90
20
 70
0
 10
1.484643
 20
6.356012
 30
0.0
 10
1.527500
 20
6.341726
 30
0.0
 10
1.598929
 20
6.341726
 30
0.0
 10
1.627500
 20
6.356012
 30
0.0
 10
1.641786
 20
6.370297
 30
0.0
 10
1.656071
 20
6.398869
 30
0.0
 10
1.656071
 20
6.427440
 30
0.0
 10
1.641786
 20
6.456012
 30
0.0
 10
1.627500
 20
6.470297
 30
0.0
 10
1.598929
 20
6.484583
 30
0.0
 10
1.541786
 20
6.498869
 30
0.0
 10
1.513214
 20
6.513154
 30
0.0
 10
1.498929
 20
6.527440
 30
0.0
 10
1.484643
 20
6.556012
 30
0.0
 10
1.484643
 20
6.584583
 30
0.0
 10
1.498929
 20
6.613154
 30
0.0
 10
1.513214
 20
6.627440
 30
0.0
 10
1.541786
 20
6.641726
 30
0.0
 10
1.613214
 20
6.641726
 30
0.0
 10
1.656071
 20
6.627440
 30
0.0
  0
LWPOLYLINE
  5
10a
100
AcDbEntity
  8
0
 62
7
100
AcDbPolyline
 90
19
 70
0
 10
2.541786
 20
9.613154
 30
0.0
 10
2.563214
 20
9.606012
 30
0.0
 10
2.570357
 20
9.598869
 30
0.0
 10
2.577500
 20
9.584583
 30
0.0
 10
2.577500
 20
9.563154
 30
0.0
 10
2.570357
 20
9.548869
 30
0.0
 10
2.563214
 20
9.541726
 30
0.0
 10
2.548929
 20
9.534583
 30
0.0
 10
2.491786
 20
9.534583
 30
0.0
 10
2.491786
 20
9.684583
 30
0.0
 10
2.541786
 20
9.684583
 30
0.0
 10
2.556071
 20
9.677440
 30
0.0
 10
2.563214
 20
9.670297
 30
0.0
 10
2.570357
 20
9.656012
 30
0.0
 10
2.570357
 20
9.641726
 30
0.0
 10
2.563214
 20
9.627440
 30
0.0
 10
2.556071
 20
9.620297
 30
0.0
 10
2.541786
 20
9.613154
 30
0.0
 10
2.491786
 20
9.613154
 30
0.0
  0
LWPOLYLINE
  5
10b
100
AcDbEntity
  8
0
 62
7
100
AcDbPolyline
 90
2
 70
0
 10
2.670357
 20
9.606012
 30
0.0
 10
2.670357
 20
9.534583
 30
0.0
  0
LWPOLYLINE
  5
10c
100
AcDbEntity
  8
0
 62
7
100
AcDbPolyline
 90
3
 70
0
 10
2.620357
 20
9.684583
 30
0.0
 10
2.670357
 20
9.606012
 30
0.0
 10
2.720357
 20
9.684583
 30
0.0
  0
LWPOLYLINE
  5
10d
100
AcDbEntity
  8
0
 62
7
100
AcDbPolyline
 90
11
 70
0
 10
2.770357
 20
9.534583
 30
0.0
 10
2.770357
 20
9.684583
 30
0.0
 10
2.827500
 20
9.684583
 30
0.0
 10
2.841786
 20
9.677440
 30
0.0
 10
2.848929
 20
9.670297
 30
0.0
 10
2.856071
 20
9.656012
 30
0.0
 10
2.856071
 20
9.634583
 30
0.0
 10
2.848929
 20
9.620297
 30
0.0
 10
2.841786
 20
9.613154
 30
0.0
 10
2.827500
 20
9.606012
 30
0.0
 10
2.770357
 20
9.606012
 30
0.0
  0
LWPOLYLINE
  5
10e
100
AcDbEntity
  8
0
 62
7
100
AcDbPolyline
 90
2
 70
0
 10
2.913214
 20
9.577440
 30
0.0
 10
2.984643
 20
9.577440
 30
0.0
  0
LWPOLYLINE
  5
10f
100
AcDbEntity
  8
0
 62
7
100
AcDbPolyline
 90
3
 70
0
 10
2.898929
 20
9.534583
 30
0.0
 10
2.948929
 20
9.684583
 30
0.0
 10
2.998929
 20
9.534583
 30
0.0
  0
LWPOLYLINE
  5
110
100
AcDbEntity
  8
0
 62
7
100
AcDbPolyline
 90
20
 70
0
 10
3.041786
 20
9.541726
 30
0.0
 10
3.063214
 20
9.534583
 30
0.0
 10
3.098929
 20
9.534583
 30
0.0
 10
3.113214
 20
9.541726
 30
0.0
 10
3.120357
 20
9.548869
 30
0.0
 10
3.127500
 20
9.563154
 30
0.0
 10
3.127500
 20
9.577440
 30
0.0
 10
3.120357
 20
9.591726
 30
0.0
 10
3.113214
 20
9.598869
 30
0.0
 10
3.098929
 20
9.606012
 30
0.0
 10
3.070357
 20
9.613154
 30
0.0
 10
3.056071
 20
9.620297
 30
0.0
 10
3.048929
 20
9.627440
 30
0.0
 10
3.041786
 20
9.641726
 30
0.0
 10
3.041786
 20
9.656012
 30
0.0
 10
3.048929
 20
9.670297
 30
0.0
 10
3.056071
 20
9.677440
 30
0.0
 10
3.070357
 20
9.684583
 30
0.0
 10
3.106071
 20
9.684583
 30
0.0
 10
3.127500
 20
9.677440
 30
0.0
  0
LWPOLYLINE
  5
111
100
AcDbEntity
  8
0
 62
7
100
AcDbPolyline
 90
20
 70
0
 10
3.184643
 20
9.541726
 30
0.0
 10
3.206071
 20
9.534583
 30
0.0
 10
3.241786
 20
9.534583
 30
0.0
 10
3.256071
 20
9.541726
 30
0.0
 10
3.263214
 20
9.548869
 30
0.0
 10
3.270357
 20
9.563154
 30
0.0
 10
3.270357
 20
9.577440
 30
0.0
 10
3.263214
 20
9.591726
 30
0.0
 10
3.256071
 20
9.598869
 30
0.0
 10
3.241786
 20
9.606012
 30
0.0
 10
3.213214
 20
9.613154
 30
0.0
 10
3.198929
 20
9.620297
 30
0.0
 10
3.191786
 20
9.627440
 30
0.0
 10
3.184643
 20
9.641726
 30
0.0
 10
3.184643
 20
9.656012
 30
0.0
 10
3.191786
 20
9.670297
 30
0.0
 10
3.198929
 20
9.677440
 30
0.0
 10
3.213214
 20
9.684583
 30
0.0
 10
3.248929
 20
9.684583
 30
0.0
 10
3.270357
 20
9.677440
 30
0.0
  0
LWPOLYLINE
  5
112
100
AcDbEntity
  8
0
 62
7
100
AcDbPolyline
 90
3
 70
0
 10
0.183214
 20
2.376012
 30
0.0
 10
0.243214
 20
2.196011
 30
0.0
 10
0.303214
 20
2.376012
 30
0.0
  0
LWPOLYLINE
  5
113
100
AcDbEntity
  8
0
 62
7
100
AcDbPolyline
 90
2
 70
0
 10
0.363214
 20
2.196011
 30
0.0
 10
0.363214
 20
2.376012
 30
0.0
  0
LWPOLYLINE
  5
114
100
AcDbEntity
  8
0
 62
7
100
AcDbPolyline
 90
12
 70
1
 10
0.448929
 20
2.196011
 30
0.0
 10
0.448929
 20
2.376012
 30
0.0
 10
0.491786
 20
2.376012
 30
0.0
 10
0.517500
 20
2.367440
 30
0.0
 10
0.534643
 20
2.350297
 30
0.0
 10
0.543214
 20
2.333154
 30
0.0
 10
0.551786
 20
2.298869
 30
0.0
 10
0.551786
 20
2.273154
 30
0.0
 10
0.543214
 20
2.238869
 30
0.0
 10
0.534643
 20
2.221726
 30
0.0
 10
0.517500
 20
2.204583
 30
0.0
 10
0.491786
 20
2.196011
 30
0.0
  0
LWPOLYLINE
  5
115
100
AcDbEntity
  8
0
 62
7
100
AcDbPolyline
 90
2
 70
0
 10
0.628929
 20
2.290297
 30
0.0
 10
0.688929
 20
2.290297
 30
0.0
  0
LWPOLYLINE
  5
116
100
AcDbEntity
  8
0
 62
7
100
AcDbPolyline
 90
4
 70
0
 10
0.714643
 20
2.196011
 30
0.0
 10
0.628929
 20
2.196011
 30
0.0
 10
0.628929
 20
2.376012
 30
0.0
 10
0.714643
 20
2.376012
 30
0.0
  0
LWPOLYLINE
  5
117
100
AcDbEntity
  8
0
 62
7
100
AcDbPolyline
 90
16
 70
1
 10
0.826071
 20
2.376012
 30
0.0
 10
0.860357
 20
2.376012
 30
0.0
 10
0.877500
 20
2.367440
 30
0.0
 10
0.894643
 20
2.350297
 30
0.0
 10
0.903214
 20
2.316012
 30
0.0
 10
0.903214
 20
2.256011
 30
0.0
 10
0.894643
 20
2.221726
 30
0.0
 10
0.877500
 20
2.204583
 30
0.0
 10
0.860357
 20
2.196011
 30
0.0
 10
0.826071
 20
2.196011
 30
0.0
 10
0.808929
 20
2.204583
 30
0.0
 10
0.791786
 20
2.221726
 30
0.0
 10
0.783214
 20
2.256011
 30
0.0
 10
0.783214
 20
2.316012
 30
0.0
 10
0.791786
 20
2.350297
 30
0.0
 10
0.808929
 20
2.367440
 30
0.0
  0
LWPOLYLINE
  5
118
100
AcDbEntity
  8
0
 62
7
100
AcDbPolyline
 90
2
 70
0
 10
0.937500
 20
2.178869
 30
0.0
 10
1.074643
 20
2.178869
 30
0.0
  0
LWPOLYLINE
  5
119
100
AcDbEntity
  8
0
 62
7
100
AcDbPolyline
 90
16
 70
1
 10
1.151786
 20
2.376012
 30
0.0
 10
1.186071
 20
2.376012
 30
0.0
 10
1.203214
 20
2.367440
 30
0.0
 10
1.220357
 20
2.350297
 30
0.0
 10
1.228929
 20
2.316012
 30
0.0
 10
1.228929
 20
2.256011
 30
0.0
 10
1.220357
 20
2.221726
 30
0.0
 10
1.203214
 20
2.204583
 30
0.0
 10
1.186071
 20
2.196011
 30
0.0
 10
1.151786
 20
2.196011
 30
0.0
 10
1.134643
 20
2.204583
 30
0.0
 10
1.117500
 20
2.221726
 30
0.0
 10
1.108929
 20
2.256011
 30
0.0
 10
1.108929
 20
2.316012
 30
0.0
 10
1.117500
 20
2.350297
 30
0.0
 10
1.134643
 20
2.367440
 30
0.0
  0
LWPOLYLINE
  5
11a
100
AcDbEntity
  8
0
 62
7
100
AcDbPolyline
 90
10
 70
0
 10
1.306071
 20
2.376012
 30
0.0
 10
1.306071
 20
2.230297
 30
0.0
 10
1.314643
 20
2.213154
 30
0.0
 10
1.323214
 20
2.204583
 30
0.0
 10
1.340357
 20
2.196011
 30
0.0
 10
1.374643
 20
2.196011
 30
0.0
 10
1.391786
 20
2.204583
 30
0.0
 10
1.400357
 20
2.213154
 30
0.0
 10
1.408929
 20
2.230297
 30
0.0
 10
1.408929
 20
2.376012
 30
0.0
  0
LWPOLYLINE
  5
11b
100
AcDbEntity
  8
0
 62
7
100
AcDbPolyline
 90
2
 70
0
 10
1.468929
 20
2.376012
 30
0.0
 10
1.571786
 20
2.376012
 30
0.0
  0
LWPOLYLINE
  5
11c
100
AcDbEntity
  8
0
 62
7
100
AcDbPolyline
 90
2
 70
0
 10
1.520357
 20
2.196011
 30
0.0
 10
1.520357
 20
2.376012
 30
0.0
  0
LWPOLYLINE
  5
11d
100
AcDbEntity
  8
0
 62
7
100
AcDbPolyline
 90
2
 70
0
 10
0.977500
 20
0.855492
 30
0.0
 10
1.282262
 20
0.855492
 30
0.0
  0
LWPOLYLINE
  5
11e
100
AcDbEntity
  8
0
 62
7
100
AcDbPolyline
 90
3
 70
0
 10
1.320357
 20
1.255492
 30
0.0
 10
1.396548
 20
1.312635
 30
0.0
 10
1.472738
 20
1.255492
 30
0.0
  0
LWPOLYLINE
  5
11f
100
AcDbEntity
  8
0
 62
7
100
AcDbPolyline
 90
20
 70
1
 10
1.987024
 20
1.293588
 30
0.0
 10
2.025119
 20
1.293588
 30
0.0
 10
2.063214
 20
1.274540
 30
0.0
 10
2.082262
 20
1.255492
 30
0.0
 10
2.101310
 20
1.217397
 30
0.0
 10
2.120357
 20
1.141207
 30
0.0
 10
2.120357
 20
1.045969
 30
0.0
 10
2.101310
 20
0.969778
 30
0.0
 10
2.082262
 20
0.931683
 30
0.0
 10
2.063214
 20
0.912635
 30
0.0
 10
2.025119
 20
0.893588
 30
0.0
 10
1.987024
 20
0.893588
 30
0.0
 10
1.948929
 20
0.912635
 30
0.0
 10
1.929881
 20
0.931683
 30
0.0
 10
1.910833
 20
0.969778
 30
0.0
 10
1.891786
 20
1.045969
 30
0.0
 10
1.891786
 20
1.141207
 30
0.0
 10
1.910833
 20
1.217397
 30
0.0
 10
1.929881
 20
1.255492
 30
0.0
 10
1.948929
 20
1.274540
 30
0.0
  0
LWPOLYLINE
  5
120
100
AcDbEntity
  8
0
 62
7
100
AcDbPolyline
 90
16
 70
0
 10
2.482262
 20
1.293588
 30
0.0
 10
2.291786
 20
1.293588
 30
0.0
 10
2.272738
 20
1.103112
 30
0.0
 10
2.291786
 20
1.122159
 30
0.0
 10
2.329881
 20
1.141207
 30
0.0
 10
2.425119
 20
1.141207
 30
0.0
 10
2.463214
 20
1.122159
 30
0.0
 10
2.482262
 20
1.103112
 30
0.0
 10
2.501310
 20
1.065016
 30
0.0
 10
2.501310
 20
0.969778
 30
0.0
 10
2.482262
 20
0.931683
 30
0.0
 10
2.463214
 20
0.912635
 30
0.0
 10
2.425119
 20
0.893588
 30
0.0
 10
2.329881
 20
0.893588
 30
0.0
 10
2.291786
 20
0.912635
 30
0.0
 10
2.272738
 20
0.931683
 30
0.0
  0
LWPOLYLINE
  5
121
100
AcDbEntity
  8
0
 62
7
100
AcDbPolyline
 90
2
 70
0
 10
1.014643
 20
0.680254
 30
0.0
 10
1.014643
 20
0.600254
 30
0.0
  0
LWPOLYLINE
  5
122
100
AcDbEntity
  8
0
 62
7
100
AcDbPolyline
 90
7
 70
0
 10
0.963214
 20
0.680254
 30
0.0
 10
0.963214
 20
0.617397
 30
0.0
 10
0.968929
 20
0.605969
 30
0.0
 10
0.980357
 20
0.600254
 30
0.0
 10
0.997500
 20
0.600254
 30
0.0
 10
1.008929
 20
0.605969
 30
0.0
 10
1.014643
 20
0.611683
 30
0.0
  0
LWPOLYLINE
  5
123
100
AcDbEntity
  8
0
 62
7
100
AcDbPolyline
 90
2
 70
0
 10
1.071786
 20
0.680254
 30
0.0
 10
1.071786
 20
0.600254
 30
0.0
  0
LWPOLYLINE
  5
124
100
AcDbEntity
  8
0
 62
7
100
AcDbPolyline
 90
7
 70
0
 10
1.071786
 20
0.668826
 30
0.0
 10
1.077500
 20
0.674540
 30
0.0
 10
1.088929
 20
0.680254
 30
0.0
 10
1.106071
 20
0.680254
 30
0.0
 10
1.117500
 20
0.674540
 30
0.0
 10
1.123214
 20
0.663111
 30
0.0
 10
1.123214
 20
0.600254
 30
0.0
  0
LWPOLYLINE
  5
125
100
AcDbEntity
  8
0
 62
7
100
AcDbPolyline
 90
2
 70
0
 10
1.231786
 20
0.600254
 30
0.0
 10
1.231786
 20
0.720254
 30
0.0
  0
LWPOLYLINE
  5
126
100
AcDbEntity
  8
0
 62
7
100
AcDbPolyline
 90
12
 70
0
 10
1.231786
 20
0.605969
 30
0.0
 10
1.220357
 20
0.600254
 30
0.0
 10
1.197500
 20
0.600254
 30
0.0
 10
1.186071
 20
0.605969
 30
0.0
 10
1.180357
 20
0.611683
 30
0.0
 10
1.174643
 20
0.623112
 30
0.0
 10
1.174643
 20
0.657397
 30
0.0
 10
1.180357
 20
0.668826
 30
0.0
 10
1.186071
 20
0.674540
 30
0.0
 10
1.197500
 20
0.680254
 30
0.0
 10
1.220357
 20
0.680254
 30
0.0
 10
1.231786
 20
0.674540
 30
0.0
  0
LWPOLYLINE
  5
127
100
AcDbEntity
  8
0
 62
7
100
AcDbPolyline
 90
13
 70
0
 10
1.334643
 20
0.605969
 30
0.0
 10
1.323214
 20
0.600254
 30
0.0
 10
1.300357
 20
0.600254
 30
0.0
 10
1.288929
 20
0.605969
 30
0.0
 10
1.283214
 20
0.617397
 30
0.0
 10
1.283214
 20
0.663111
 30
0.0
 10
1.288929
 20
0.674540
 30
0.0
 10
1.300357
 20
0.680254
 30
0.0
 10
1.323214
 20
0.680254
 30
0.0
 10
1.334643
 20
0.674540
 30
0.0
 10
1.340357
 20
0.663111
 30
0.0
 10
1.340357
 20
0.651683
 30
0.0
 10
1.283214
 20
0.640254
 30
0.0
  0
LWPOLYLINE
  5
128
100
AcDbEntity
  8
0
 62
7
100
AcDbPolyline
 90
2
 70
0
 10
1.391786
 20
0.600254
 30
0.0
 10
1.391786
 20
0.680254
 30
0.0
  0
LWPOLYLINE
  5
129
100
AcDbEntity
  8
0
 62
7
100
AcDbPolyline
 90
5
 70
0
 10
1.391786
 20
0.657397
 30
0.0
 10
1.397500
 20
0.668826
 30
0.0
 10
1.403214
 20
0.674540
 30
0.0
 10
1.414643
 20
0.680254
 30
0.0
 10
1.426071
 20
0.680254
 30
0.0
  0
LWPOLYLINE
  5
12a
100
AcDbEntity
  8
0
 62
7
100
AcDbPolyline
 90
16
 70
0
 10
1.460357
 20
0.605969
 30
0.0
 10
1.471786
 20
0.600254
 30
0.0
 10
1.494643
 20
0.600254
 30
0.0
 10
1.506071
 20
0.605969
 30
0.0
 10
1.511786
 20
0.617397
 30
0.0
 10
1.511786
 20
0.623112
 30
0.0
 10
1.506071
 20
0.634540
 30
0.0
 10
1.494643
 20
0.640254
 30
0.0
 10
1.477500
 20
0.640254
 30
0.0
 10
1.466071
 20
0.645969
 30
0.0
 10
1.460357
 20
0.657397
 30
0.0
 10
1.460357
 20
0.663111
 30
0.0
 10
1.466071
 20
0.674540
 30
0.0
 10
1.477500
 20
0.680254
 30
0.0
 10
1.494643
 20
0.680254
 30
0.0
 10
1.506071
 20
0.674540
 30
0.0
  0
LWPOLYLINE
  5
12b
100
AcDbEntity
  8
0
 62
7
100
AcDbPolyline
 90
12
 70
0
 10
1.614643
 20
0.605969
 30
0.0
 10
1.603214
 20
0.600254
 30
0.0
 10
1.580357
 20
0.600254
 30
0.0
 10
1.568929
 20
0.605969
 30
0.0
 10
1.563214
 20
0.611683
 30
0.0
 10
1.557500
 20
0.623112
 30
0.0
 10
1.557500
 20
0.657397
 30
0.0
 10
1.563214
 20
0.668826
 30
0.0
 10
1.568929
 20
0.674540
 30
0.0
 10
1.580357
 20
0.680254
 30
0.0
 10
1.603214
 20
0.680254
 30
0.0
 10
1.614643
 20
0.674540
 30
0.0
  0
LWPOLYLINE
  5
12c
100
AcDbEntity
  8
0
 62
7
100
AcDbPolyline
 90
16
 70
1
 10
1.683214
 20
0.600254
 30
0.0
 10
1.671786
 20
0.605969
 30
0.0
 10
1.666071
 20
0.611683
 30
0.0
 10
1.660357
 20
0.623112
 30
0.0
 10
1.660357
 20
0.657397
 30
0.0
 10
1.666071
 20
0.668826
 30
0.0
 10
1.671786
 20
0.674540
 30
0.0
 10
1.683214
 20
0.680254
 30
0.0
 10
1.700357
 20
0.680254
 30
0.0
 10
1.711786
 20
0.674540
 30
0.0
 10
1.717500
 20
0.668826
 30
0.0
 10
1.723214
 20
0.657397
 30
0.0
 10
1.723214
 20
0.623112
 30
0.0
 10
1.717500
 20
0.611683
 30
0.0
 10
1.711786
 20
0.605969
 30
0.0
 10
1.700357
 20
0.600254
 30
0.0
  0
LWPOLYLINE
  5
12d
100
AcDbEntity
  8
0
 62
7
100
AcDbPolyline
 90
2
 70
0
 10
1.774643
 20
0.600254
 30
0.0
 10
1.774643
 20
0.680254
 30
0.0
  0
LWPOLYLINE
  5
12e
100
AcDbEntity
  8
0
 62
7
100
AcDbPolyline
 90
5
 70
0
 10
1.774643
 20
0.657397
 30
0.0
 10
1.780357
 20
0.668826
 30
0.0
 10
1.786071
 20
0.674540
 30
0.0
 10
1.797500
 20
0.680254
 30
0.0
 10
1.808929
 20
0.680254
 30
0.0
  0
LWPOLYLINE
  5
12f
100
AcDbEntity
  8
0
 62
7
100
AcDbPolyline
 90
13
 70
0
 10
1.894643
 20
0.605969
 30
0.0
 10
1.883214
 20
0.600254
 30
0.0
 10
1.860357
 20
0.600254
 30
0.0
 10
1.848929
 20
0.605969
 30
0.0
 10
1.843214
 20
0.617397
 30
0.0
 10
1.843214
 20
0.663111
 30
0.0
 10
1.848929
 20
0.674540
 30
0.0
 10
1.860357
 20
0.680254
 30
0.0
 10
1.883214
 20
0.680254
 30
0.0
 10
1.894643
 20
0.674540
 30
0.0
 10
1.900357
 20
0.663111
 30
0.0
 10
1.900357
 20
0.651683
 30
0.0
 10
1.843214
 20
0.640254
 30
0.0
  0
LWPOLYLINE
  5
130
100
AcDbEntity
  8
0
 62
7
100
AcDbPolyline
 90
16
 70
0
 10
1.946071
 20
0.605969
 30
0.0
 10
1.957500
 20
0.600254
 30
0.0
 10
1.980357
 20
0.600254
 30
0.0
 10
1.991786
 20
0.605969
 30
0.0
 10
1.997500
 20
0.617397
 30
0.0
 10
1.997500
 20
0.623112
 30
0.0
 10
1.991786
 20
0.634540
 30
0.0
 10
1.980357
 20
0.640254
 30
0.0
 10
1.963214
 20
0.640254
 30
0.0
 10
1.951786
 20
0.645969
 30
0.0
 10
1.946071
 20
0.657397
 30
0.0
 10
1.946071
 20
0.663111
 30
0.0
 10
1.951786
 20
0.674540
 30
0.0
 10
1.963214
 20
0.680254
 30
0.0
 10
1.980357
 20
0.680254
 30
0.0
 10
1.991786
 20
0.674540
 30
0.0
  0
LWPOLYLINE
  5
131
100
AcDbEntity
  8
0
 62
7
100
AcDbPolyline
 90
6
 70
0
 10
2.048929
 20
0.611683
 30
0.0
 10
2.054643
 20
0.605969
 30
0.0
 10
2.048929
 20
0.600254
 30
0.0
 10
2.043214
 20
0.605969
 30
0.0
 10
2.048929
 20
0.611683
 30
0.0
 10
2.048929
 20
0.600254
 30
0.0
  0
LWPOLYLINE
  5
132
100
AcDbEntity
  8
0
 62
7
100
AcDbPolyline
 90
16
 70
0
 10
2.100357
 20
0.605969
 30
0.0
 10
2.111786
 20
0.600254
 30
0.0
 10
2.134643
 20
0.600254
 30
0.0
 10
2.146071
 20
0.605969
 30
0.0
 10
2.151786
 20
0.617397
 30
0.0
 10
2.151786
 20
0.623112
 30
0.0
 10
2.146071
 20
0.634540
 30
0.0
 10
2.134643
 20
0.640254
 30
0.0
 10
2.117500
 20
0.640254
 30
0.0
 10
2.106071
 20
0.645969
 30
0.0
 10
2.100357
 20
0.657397
 30
0.0
 10
2.100357
 20
0.663111
 30
0.0
 10
2.106071
 20
0.674540
 30
0.0
 10
2.117500
 20
0.680254
 30
0.0
 10
2.134643
 20
0.680254
 30
0.0
 10
2.146071
 20
0.674540
 30
0.0
  0
LWPOLYLINE
  5
133
100
AcDbEntity
  8
0
 62
7
100
AcDbPolyline
 90
2
 70
0
 10
2.203214
 20
0.600254
 30
0.0
 10
2.203214
 20
0.720254
 30
0.0
  0
LWPOLYLINE
  5
134
100
AcDbEntity
  8
0
 62
7
100
AcDbPolyline
 90
7
 70
0
 10
2.254643
 20
0.600254
 30
0.0
 10
2.254643
 20
0.663111
 30
0.0
 10
2.248929
 20
0.674540
 30
0.0
 10
2.237500
 20
0.680254
 30
0.0
 10
2.220357
 20
0.680254
 30
0.0
 10
2.208929
 20
0.674540
 30
0.0
 10
2.203214
 20
0.668826
 30
0.0
  0
LWPOLYLINE
  5
135
100
AcDbEntity
  8
0
 62
7
100
AcDbPolyline
 90
16
 70
1
 10
2.328929
 20
0.600254
 30
0.0
 10
2.317500
 20
0.605969
 30
0.0
 10
2.311786
 20
0.611683
 30
0.0
 10
2.306071
 20
0.623112
 30
0.0
 10
2.306071
 20
0.657397
 30
0.0
 10
2.311786
 20
0.668826
 30
0.0
 10
2.317500
 20
0.674540
 30
0.0
 10
2.328929
 20
0.680254
 30
0.0
 10
2.346071
 20
0.680254
 30
0.0
 10
2.357500
 20
0.674540
 30
0.0
 10
2.363214
 20
0.668826
 30
0.0
 10
2.368928
 20
0.657397
 30
0.0
 10
2.368928
 20
0.623112
 30
0.0
 10
2.363214
 20
0.611683
 30
0.0
 10
2.357500
 20
0.605969
 30
0.0
 10
2.346071
 20
0.600254
 30
0.0
  0
LWPOLYLINE
  5
136
100
AcDbEntity
  8
0
 62
7
100
AcDbPolyline
 90
2
 70
0
 10
2.420357
 20
0.680254
 30
0.0
 10
2.420357
 20
0.560254
 30
0.0
  0
LWPOLYLINE
  5
137
100
AcDbEntity
  8
0
 62
7
100
AcDbPolyline
 90
12
 70
0
 10
2.420357
 20
0.674540
 30
0.0
 10
2.431786
 20
0.680254
 30
0.0
 10
2.454643
 20
0.680254
 30
0.0
 10
2.466071
 20
0.674540
 30
0.0
 10
2.471786
 20
0.668826
 30
0.0
 10
2.477500
 20
0.657397
 30
0.0
 10
2.477500
 20
0.623112
 30
0.0
 10
2.471786
 20
0.611683
 30
0.0
 10
2.466071
 20
0.605969
 30
0.0
 10
2.454643
 20
0.600254
 30
0.0
 10
2.431786
 20
0.600254
 30
0.0
 10
2.420357
 20
0.605969
 30
0.0
  0
LWPOLYLINE
  5
138
100
AcDbEntity
  8
0
 62
7
100
AcDbPolyline
 90
3
 70
0
 10
0.228214
 20
10.651012
 30
0.0
 10
0.288214
 20
10.471012
 30
0.0
 10
0.348214
 20
10.651012
 30
0.0
  0
LWPOLYLINE
  5
139
100
AcDbEntity
  8
0
 62
7
100
AcDbPolyline
 90
2
 70
0
 10
0.408214
 20
10.471012
 30
0.0
 10
0.408214
 20
10.651012
 30
0.0
  0
LWPOLYLINE
  5
13a
100
AcDbEntity
  8
0
 62
7
100
AcDbPolyline
 90
12
 70
1
 10
0.493929
 20
10.471012
 30
0.0
 10
0.493929
 20
10.651012
 30
0.0
 10
0.536786
 20
10.651012
 30
0.0
 10
0.562500
 20
10.642440
 30
0.0
 10
0.579643
 20
10.625297
 30
0.0
 10
0.588214
 20
10.608154
 30
0.0
 10
0.596786
 20
10.573869
 30
0.0
 10
0.596786
 20
10.548154
 30
0.0
 10
0.588214
 20
10.513869
 30
0.0
 10
0.579643
 20
10.496726
 30
0.0
 10
0.562500
 20
10.479583
 30
0.0
 10
0.536786
 20
10.471012
 30
0.0
  0
LWPOLYLINE
  5
13b
100
AcDbEntity
  8
0
 62
7
100
AcDbPolyline
 90
2
 70
0
 10
0.673929
 20
10.565297
 30
0.0
 10
0.733929
 20
10.565297
 30
0.0
  0
LWPOLYLINE
  5
13c
100
AcDbEntity
  8
0
 62
7
100
AcDbPolyline
 90
4
 70
0
 10
0.759643
 20
10.471012
 30
0.0
 10
0.673929
 20
10.471012
 30
0.0
 10
0.673929
 20
10.651012
 30
0.0
 10
0.759643
 20
10.651012
 30
0.0
  0
LWPOLYLINE
  5
13d
100
AcDbEntity
  8
0
 62
7
100
AcDbPolyline
 90
16
 70
1
 10
0.871071
 20
10.651012
 30
0.0
 10
0.905357
 20
10.651012
 30
0.0
 10
0.922500
 20
10.642440
 30
0.0
 10
0.939643
 20
10.625297
 30
0.0
 10
0.948214
 20
10.591012
 30
0.0
 10
0.948214
 20
10.531012
 30
0.0
 10
0.939643
 20
10.496726
 30
0.0
 10
0.922500
 20
10.479583
 30
0.0
 10
0.905357
 20
10.471012
 30
0.0
 10
0.871071
 20
10.471012
 30
0.0
 10
0.853929
 20
10.479583
 30
0.0
 10
0.836786
 20
10.496726
 30
0.0
 10
0.828214
 20
10.531012
 30
0.0
 10
0.828214
 20
10.591012
 30
0.0
 10
0.836786
 20
10.625297
 30
0.0
 10
0.853929
 20
10.642440
 30
0.0
  0
LWPOLYLINE
  5
13e
100
AcDbEntity
  8
0
 62
7
100
AcDbPolyline
 90
2
 70
0
 10
0.982500
 20
10.453869
 30
0.0
 10
1.119643
 20
10.453869
 30
0.0
  0
LWPOLYLINE
  5
13f
100
AcDbEntity
  8
0
 62
7
100
AcDbPolyline
 90
2
 70
0
 10
1.162500
 20
10.471012
 30
0.0
 10
1.162500
 20
10.651012
 30
0.0
  0
LWPOLYLINE
  5
140
100
AcDbEntity
  8
0
 62
7
100
AcDbPolyline
 90
4
 70
0
 10
1.248214
 20
10.471012
 30
0.0
 10
1.248214
 20
10.651012
 30
0.0
 10
1.351071
 20
10.471012
 30
0.0
 10
1.351071
 20
10.651012
 30
0.0
  0
LWPOLYLINE
  5
141
100
AcDbEntity
  8
0
 62
7
100
AcDbPolyline
 90
2
 70
0
 10
0.072988
 20
12.120535
 30
0.0
 10
0.170131
 20
12.120535
 30
0.0
  0
LWPOLYLINE
  5
142
100
AcDbEntity
  8
0
 62
7
100
AcDbPolyline
 90
2
 70
0
 10
0.121560
 20
11.950535
 30
0.0
 10
0.121560
 20
12.120535
 30
0.0
  0
LWPOLYLINE
  5
143
100
AcDbEntity
  8
0
 62
7
100
AcDbPolyline
 90
5
 70
0
 10
0.210607
 20
12.120535
 30
0.0
 10
0.251083
 20
11.950535
 30
0.0
 10
0.283464
 20
12.071964
 30
0.0
 10
0.315845
 20
11.950535
 30
0.0
 10
0.356321
 20
12.120535
 30
0.0
  0
LWPOLYLINE
  5
144
100
AcDbEntity
  8
0
 62
7
100
AcDbPolyline
 90
16
 70
1
 10
0.453464
 20
12.120535
 30
0.0
 10
0.485845
 20
12.120535
 30
0.0
 10
0.502036
 20
12.112440
 30
0.0
 10
0.518226
 20
12.096250
 30
0.0
 10
0.526321
 20
12.063869
 30
0.0
 10
0.526321
 20
12.007202
 30
0.0
 10
0.518226
 20
11.974821
 30
0.0
 10
0.502036
 20
11.958631
 30
0.0
 10
0.485845
 20
11.950535
 30
0.0
 10
0.453464
 20
11.950535
 30
0.0
 10
0.437274
 20
11.958631
 30
0.0
 10
0.421083
 20
11.974821
 30
0.0
 10
0.412988
 20
12.007202
 30
0.0
 10
0.412988
 20
12.063869
 30
0.0
 10
0.421083
 20
12.096250
 30
0.0
 10
0.437274
 20
12.112440
 30
0.0
  0
LWPOLYLINE
  5
145
100
AcDbEntity
  8
0
 62
7
100
AcDbPolyline
 90
2
 70
0
 10
0.558702
 20
11.934345
 30
0.0
 10
0.688226
 20
11.934345
 30
0.0
  0
LWPOLYLINE
  5
146
100
AcDbEntity
  8
0
 62
7
100
AcDbPolyline
 90
16
 70
0
 10
0.825845
 20
11.966726
 30
0.0
 10
0.817750
 20
11.958631
 30
0.0
 10
0.793464
 20
11.950535
 30
0.0
 10
0.777274
 20
11.950535
 30
0.0
 10
0.752988
 20
11.958631
 30
0.0
 10
0.736798
 20
11.974821
 30
0.0
 10
0.728702
 20
11.991012
 30
0.0
 10
0.720607
 20
12.023392
 30
0.0
 10
0.720607
 20
12.047678
 30
0.0
 10
0.728702
 20
12.080059
 30
0.0
 10
0.736798
 20
12.096250
 30
0.0
 10
0.752988
 20
12.112440
 30
0.0
 10
0.777274
 20
12.120535
 30
0.0
 10
0.793464
 20
12.120535
 30
0.0
 10
0.817750
 20
12.112440
 30
0.0
 10
0.825845
 20
12.104345
 30
0.0
  0
LWPOLYLINE
  5
147
100
AcDbEntity
  8
0
 62
7
100
AcDbPolyline
 90
16
 70
1
 10
0.931083
 20
12.120535
 30
0.0
 10
0.963464
 20
12.120535
 30
0.0
 10
0.979655
 20
12.112440
 30
0.0
 10
0.995845
 20
12.096250
 30
0.0
 10
1.003940
 20
12.063869
 30
0.0
 10
1.003940
 20
12.007202
 30
0.0
 10
0.995845
 20
11.974821
 30
0.0
 10
0.979655
 20
11.958631
 30
0.0
 10
0.963464
 20
11.950535
 30
0.0
 10
0.931083
 20
11.950535
 30
0.0
 10
0.914893
 20
11.958631
 30
0.0
 10
0.898702
 20
11.974821
 30
0.0
 10
0.890607
 20
12.007202
 30
0.0
 10
0.890607
 20
12.063869
 30
0.0
 10
0.898702
 20
12.096250
 30
0.0
 10
0.914893
 20
12.112440
 30
0.0
  0
LWPOLYLINE
  5
148
100
AcDbEntity
  8
0
 62
7
100
AcDbPolyline
 90
5
 70
0
 10
1.076798
 20
11.950535
 30
0.0
 10
1.076798
 20
12.120535
 30
0.0
 10
1.133464
 20
11.999107
 30
0.0
 10
1.190131
 20
12.120535
 30
0.0
 10
1.190131
 20
11.950535
 30
0.0
  0
LWPOLYLINE
  5
149
100
AcDbEntity
  8
0
 62
7
100
AcDbPolyline
 90
11
 70
0
 10
1.271083
 20
11.950535
 30
0.0
 10
1.271083
 20
12.120535
 30
0.0
 10
1.335845
 20
12.120535
 30
0.0
 10
1.352036
 20
12.112440
 30
0.0
 10
1.360131
 20
12.104345
 30
0.0
 10
1.368226
 20
12.088154
 30
0.0
 10
1.368226
 20
12.063869
 30
0.0
 10
1.360131
 20
12.047678
 30
0.0
 10
1.352036
 20
12.039583
 30
0.0
 10
1.335845
 20
12.031488
 30
0.0
 10
1.271083
 20
12.031488
 30
0.0
  0
LWPOLYLINE
  5
14a
100
AcDbEntity
  8
0
 62
7
100
AcDbPolyline
 90
2
 70
0
 10
1.432988
 20
11.999107
 30
0.0
 10
1.513940
 20
11.999107
 30
0.0
  0
LWPOLYLINE
  5
14b
100
AcDbEntity
  8
0
 62
7
100
AcDbPolyline
 90
3
 70
0
 10
1.416798
 20
11.950535
 30
0.0
 10
1.473464
 20
12.120535
 30
0.0
 10
1.530131
 20
11.950535
 30
0.0
  0
LWPOLYLINE
  5
14c
100
AcDbEntity
  8
0
 62
7
100
AcDbPolyline
 90
2
 70
0
 10
1.683940
 20
11.950535
 30
0.0
 10
1.627274
 20
12.031488
 30
0.0
  0
LWPOLYLINE
  5
14d
100
AcDbEntity
  8
0
 62
7
100
AcDbPolyline
 90
11
 70
0
 10
1.586798
 20
11.950535
 30
0.0
 10
1.586798
 20
12.120535
 30
0.0
 10
1.651560
 20
12.120535
 30
0.0
 10
1.667750
 20
12.112440
 30
0.0
 10
1.675845
 20
12.104345
 30
0.0
 10
1.683940
 20
12.088154
 30
0.0
 10
1.683940
 20
12.063869
 30
0.0
 10
1.675845
 20
12.047678
 30
0.0
 10
1.667750
 20
12.039583
 30
0.0
 10
1.651560
 20
12.031488
 30
0.0
 10
1.586798
 20
12.031488
 30
0.0
  0
LWPOLYLINE
  5
14e
100
AcDbEntity
  8
0
 62
7
100
AcDbPolyline
 90
2
 70
0
 10
1.748702
 20
11.999107
 30
0.0
 10
1.829655
 20
11.999107
 30
0.0
  0
LWPOLYLINE
  5
14f
100
AcDbEntity
  8
0
 62
7
100
AcDbPolyline
 90
3
 70
0
 10
1.732512
 20
11.950535
 30
0.0
 10
1.789179
 20
12.120535
 30
0.0
 10
1.845845
 20
11.950535
 30
0.0
  0
LWPOLYLINE
  5
150
100
AcDbEntity
  8
0
 62
7
100
AcDbPolyline
 90
2
 70
0
 10
1.878226
 20
12.120535
 30
0.0
 10
1.975369
 20
12.120535
 30
0.0
  0
LWPOLYLINE
  5
151
100
AcDbEntity
  8
0
 62
7
100
AcDbPolyline
 90
2
 70
0
 10
1.926798
 20
11.950535
 30
0.0
 10
1.926798
 20
12.120535
 30
0.0
  0
LWPOLYLINE
  5
152
100
AcDbEntity
  8
0
 62
7
100
AcDbPolyline
 90
16
 70
1
 10
2.064417
 20
12.120535
 30
0.0
 10
2.096798
 20
12.120535
 30
0.0
 10
2.112988
 20
12.112440
 30
0.0
 10
2.129179
 20
12.096250
 30
0.0
 10
2.137274
 20
12.063869
 30
0.0
 10
2.137274
 20
12.007202
 30
0.0
 10
2.129179
 20
11.974821
 30
0.0
 10
2.112988
 20
11.958631
 30
0.0
 10
2.096798
 20
11.950535
 30
0.0
 10
2.064417
 20
11.950535
 30
0.0
 10
2.048226
 20
11.958631
 30
0.0
 10
2.032036
 20
11.974821
 30
0.0
 10
2.023940
 20
12.007202
 30
0.0
 10
2.023940
 20
12.063869
 30
0.0
 10
2.032036
 20
12.096250
 30
0.0
 10
2.048226
 20
12.112440
 30
0.0
  0
LWPOLYLINE
  5
153
100
AcDbEntity
  8
0
 62
7
100
AcDbPolyline
 90
2
 70
0
 10
2.307274
 20
11.950535
 30
0.0
 10
2.250607
 20
12.031488
 30
0.0
  0
LWPOLYLINE
  5
154
100
AcDbEntity
  8
0
 62
7
100
AcDbPolyline
 90
11
 70
0
 10
2.210131
 20
11.950535
 30
0.0
 10
2.210131
 20
12.120535
 30
0.0
 10
2.274893
 20
12.120535
 30
0.0
 10
2.291083
 20
12.112440
 30
0.0
 10
2.299179
 20
12.104345
 30
0.0
 10
2.307274
 20
12.088154
 30
0.0
 10
2.307274
 20
12.063869
 30
0.0
 10
2.299179
 20
12.047678
 30
0.0
 10
2.291083
 20
12.039583
 30
0.0
 10
2.274893
 20
12.031488
 30
0.0
 10
2.210131
 20
12.031488
 30
0.0
  0
LWPOLYLINE
  5
155
100
AcDbEntity
  8
0
 62
7
100
AcDbPolyline
 90
2
 70
0
 10
2.339655
 20
11.934345
 30
0.0
 10
2.469179
 20
11.934345
 30
0.0
  0
LWPOLYLINE
  5
156
100
AcDbEntity
  8
0
 62
7
100
AcDbPolyline
 90
2
 70
0
 10
2.509655
 20
12.039583
 30
0.0
 10
2.566321
 20
12.039583
 30
0.0
  0
LWPOLYLINE
  5
157
100
AcDbEntity
  8
0
 62
7
100
AcDbPolyline
 90
4
 70
0
 10
2.590607
 20
11.950535
 30
0.0
 10
2.509655
 20
11.950535
 30
0.0
 10
2.509655
 20
12.120535
 30
0.0
 10
2.590607
 20
12.120535
 30
0.0
  0
LWPOLYLINE
  5
158
100
AcDbEntity
  8
0
 62
7
100
AcDbPolyline
 90
2
 70
0
 10
2.720131
 20
12.039583
 30
0.0
 10
2.663464
 20
12.039583
 30
0.0
  0
LWPOLYLINE
  5
159
100
AcDbEntity
  8
0
 62
7
100
AcDbPolyline
 90
3
 70
0
 10
2.663464
 20
11.950535
 30
0.0
 10
2.663464
 20
12.120535
 30
0.0
 10
2.744417
 20
12.120535
 30
0.0
  0
LWPOLYLINE
  5
15a
100
AcDbEntity
  8
0
 62
7
100
AcDbPolyline
 90
2
 70
0
 10
2.865845
 20
12.039583
 30
0.0
 10
2.809179
 20
12.039583
 30
0.0
  0
LWPOLYLINE
  5
15b
100
AcDbEntity
  8
0
 62
7
100
AcDbPolyline
 90
3
 70
0
 10
2.809179
 20
11.950535
 30
0.0
 10
2.809179
 20
12.120535
 30
0.0
 10
2.890131
 20
12.120535
 30
0.0
  0
LWPOLYLINE
  5
15c
100
AcDbEntity
  8
0
 62
7
100
AcDbPolyline
 90
2
 70
0
 10
2.954893
 20
12.039583
 30
0.0
 10
3.011560
 20
12.039583
 30
0.0
  0
LWPOLYLINE
  5
15d
100
AcDbEntity
  8
0
 62
7
100
AcDbPolyline
 90
4
 70
0
 10
3.035845
 20
11.950535
 30
0.0
 10
2.954893
 20
11.950535
 30
0.0
 10
2.954893
 20
12.120535
 30
0.0
 10
3.035845
 20
12.120535
 30
0.0
  0
LWPOLYLINE
  5
15e
100
AcDbEntity
  8
0
 62
7
100
AcDbPolyline
 90
16
 70
0
 10
3.205845
 20
11.966726
 30
0.0
 10
3.197750
 20
11.958631
 30
0.0
 10
3.173464
 20
11.950535
 30
0.0
 10
3.157274
 20
11.950535
 30
0.0
 10
3.132988
 20
11.958631
 30
0.0
 10
3.116798
 20
11.974821
 30
0.0
 10
3.108702
 20
11.991012
 30
0.0
 10
3.100607
 20
12.023392
 30
0.0
 10
3.100607
 20
12.047678
 30
0.0
 10
3.108702
 20
12.080059
 30
0.0
 10
3.116798
 20
12.096250
 30
0.0
 10
3.132988
 20
12.112440
 30
0.0
 10
3.157274
 20
12.120535
 30
0.0
 10
3.173464
 20
12.120535
 30
0.0
 10
3.197750
 20
12.112440
 30
0.0
 10
3.205845
 20
12.104345
 30
0.0
  0
LWPOLYLINE
  5
15f
100
AcDbEntity
  8
0
 62
7
100
AcDbPolyline
 90
2
 70
0
 10
3.254417
 20
12.120535
 30
0.0
 10
3.351560
 20
12.120535
 30
0.0
  0
LWPOLYLINE
  5
160
100
AcDbEntity
  8
0
 62
7
100
AcDbPolyline
 90
2
 70
0
 10
3.302988
 20
11.950535
 30
0.0
 10
3.302988
 20
12.120535
 30
0.0
  0
ENDSEC
  0
SECTION
  2
OBJECTS
  0
DICTIONARY
  5
C
330
0
100
AcDbDictionary
  3
ACAD_GROUP
350
D
  3
ACAD_MLINESTYLE
350
17
  0
DICTIONARY
  5
D
330
C
100
AcDbDictionary
  0
DICTIONARY
  5
1A
330
C
100
AcDbDictionary
  0
DICTIONARY
  5
17
330
C
100
AcDbDictionary
  3
STANDARD
350
18
  0
DICTIONARY
  5
19
330
C
100
AcDbDictionary
  0
ENDSEC
  0
EOF
