<?xml version="1.0" standalone="no"?>
 <!DOCTYPE svg PUBLIC "-//W3C//DTD SVG 1.1//EN" 
 "http://www.w3.org/Graphics/SVG/1.1/DTD/svg11.dtd"> 
<svg
  xmlns:svg="http://www.w3.org/2000/svg"
  xmlns="http://www.w3.org/2000/svg"
  xmlns:xlink="http://www.w3.org/1999/xlink"
  version="1.1"
  width="3.502660cm" height="12.854940cm" viewBox="0 0 35026600 128549400">
<title>SVG Picture created as two_comparator_effect_panel-Edge_Cuts.svg date 2023/07/12 15:33:35 </title>
  <desc>Picture generated by PCBNEW </desc>
<g style="fill:#000000; fill-opacity:1.000000;stroke:#000000; stroke-opacity:1.000000;
stroke-linecap:round; stroke-linejoin:round;"
 transform="translate(0 0) scale(1 1)">
</g>
<g style="fill:#000000; fill-opacity:0.0; 
stroke:#000000; stroke-width:0.000000; stroke-opacity:1; 
stroke-linecap:round; stroke-linejoin:round;">
</g>
<g style="fill:#000000; fill-opacity:0.0; 
stroke:#000000; stroke-width:50000.000000; stroke-opacity:1; 
stroke-linecap:round; stroke-linejoin:round;">
<path d="M25000 25000
L35025000 25000
" />
<path d="M25000 128525000
L25000 25000
" />
<circle cx="9298455.000000" cy="45465000.000000" r="4136546.000000" /> 
<circle cx="23405000.000000" cy="23185000.000000" r="6500000.000000" /> 
<circle cx="22985000.000000" cy="105455000.000000" r="6500000.000000" /> 
<circle cx="28898455.000000" cy="38585000.000000" r="4323034.000000" /> 
<path d="M28675000 123925000
L26375000 123925000
" />
<path d="M26375000.000000 1425000.000000 A1600000.000000 1600000.000000 0.0 0 0 26375000.000000 4625000.000000" />
<path d="M8675000.000000 127125000.000000 A1600000.000000 1600000.000000 0.0 0 0 8675000.000000 123925000.000000" />
<path d="M28675000.000000 127125000.000000 A1600000.000000 1600000.000000 0.0 0 0 28675000.000000 123925000.000000" />
<path d="M28675000 4625000
L26375000 4625000
" />
<circle cx="3507234.000000" cy="17775000.000000" r="1767767.000000" /> 
<path d="M8675000 123925000
L6375000 123925000
" />
<path d="M6375000.000000 1425000.000000 A1600000.000000 1600000.000000 0.0 0 0 6375000.000000 4625000.000000" />
<path d="M8675000 1425000
L6375000 1425000
" />
<path d="M35025000 128525000
L35025000 25000
" />
<path d="M26375000.000000 123925000.000000 A1600000.000000 1600000.000000 0.0 0 0 26375000.000000 127125000.000000" />
<path d="M35025000 128525000
L25000 128525000
" />
<circle cx="9435000.000000" cy="83073535.000000" r="4136546.000000" /> 
<path d="M6375000.000000 123925000.000000 A1600000.000000 1600000.000000 0.0 0 0 6375000.000000 127125000.000000" />
<circle cx="31525000.000000" cy="17775000.000000" r="1767767.000000" /> 
<path d="M8675000.000000 4625000.000000 A1600000.000000 1600000.000000 0.0 0 0 8675000.000000 1425000.000000" />
<circle cx="31457234.000000" cy="110775000.000000" r="1767767.000000" /> 
<path d="M28675000 127125000
L26375000 127125000
" />
<path d="M28675000.000000 4625000.000000 A1600000.000000 1600000.000000 0.0 0 0 28675000.000000 1425000.000000" />
<path d="M8675000 4625000
L6375000 4625000
" />
<path d="M28675000 1425000
L26375000 1425000
" />
<path d="M8675000 127125000
L6375000 127125000
" />
<circle cx="3525000.000000" cy="110842766.000000" r="1767767.000000" /> 
<g >
</g>
<g >
</g>
<g >
</g>
</g> 
</svg>
