<?xml version="1.0" standalone="no"?>
 <!DOCTYPE svg PUBLIC "-//W3C//DTD SVG 1.1//EN" 
 "http://www.w3.org/Graphics/SVG/1.1/DTD/svg11.dtd"> 
<svg
  xmlns:svg="http://www.w3.org/2000/svg"
  xmlns="http://www.w3.org/2000/svg"
  xmlns:xlink="http://www.w3.org/1999/xlink"
  version="1.1"
  width="3.502660cm" height="12.854940cm" viewBox="0 0 35026600 128549400">
<title>SVG Picture created as two_comparator_effect_panel-F_Silkscreen.svg date 2023/07/12 15:33:35 </title>
  <desc>Picture generated by PCBNEW </desc>
<g style="fill:#000000; fill-opacity:1.000000;stroke:#000000; stroke-opacity:1.000000;
stroke-linecap:round; stroke-linejoin:round;"
 transform="translate(0 0) scale(1 1)">
</g>
<g style="fill:#000000; fill-opacity:0.0; 
stroke:#000000; stroke-width:0.000000; stroke-opacity:1; 
stroke-linecap:round; stroke-linejoin:round;">
</g>
<g style="fill:#000000; fill-opacity:0.0; 
stroke:#000000; stroke-width:120000.000000; stroke-opacity:1; 
stroke-linecap:round; stroke-linejoin:round;">
<path d="M8915000 68815000
L8915000 75515000
" />
<path d="M8915000 59315000
L8915000 53115000
" />
</g>
<g style="fill:#000000; fill-opacity:0.0; 
stroke:#000000; stroke-width:300000.000000; stroke-opacity:1; 
stroke-linecap:round; stroke-linejoin:round;">
<text x="9275000.000000" y="65275000.000000"
textLength="16754286.000000" font-size="4000000.000000" lengthAdjust="spacingAndGlyphs"
text-anchor="middle" opacity="0">LEVELS</text>
<g class="stroked-text"><desc>LEVELS</desc>
<path d="M3560714 65132142
L2132142 65132142
L2132142 62132142
" />
<path d="M4560714 63560714
L5560714 63560714
" />
<path d="M5989285 65132142
L4560714 65132142
L4560714 62132142
L5989285 62132142
" />
<path d="M6846428 62132142
L7846428 65132142
L8846428 62132142
" />
<path d="M9846428 63560714
L10846428 63560714
" />
<path d="M11275000 65132142
L9846428 65132142
L9846428 62132142
L11275000 62132142
" />
<path d="M13989285 65132142
L12560714 65132142
L12560714 62132142
" />
<path d="M14846428 64989285
L15275000 65132142
L15989285 65132142
L16275000 64989285
L16417857 64846428
L16560714 64560714
L16560714 64275000
L16417857 63989285
L16275000 63846428
L15989285 63703571
L15417857 63560714
L15132142 63417857
L14989285 63275000
L14846428 62989285
L14846428 62703571
L14989285 62417857
L15132142 62275000
L15417857 62132142
L16132142 62132142
L16560714 62275000
" />
</g></g>
<g style="fill:#000000; fill-opacity:0.0; 
stroke:#000000; stroke-width:200000.000000; stroke-opacity:1; 
stroke-linecap:round; stroke-linejoin:round;">
<text x="28775000.000000" y="33275000.000000"
textLength="8818571.000000" font-size="2000000.000000" lengthAdjust="spacingAndGlyphs"
text-anchor="middle" opacity="0">BYPASS</text>
<g class="stroked-text"><desc>BYPASS</desc>
<path d="M25417857 32417857
L25632142 32489285
L25703571 32560714
L25775000 32703571
L25775000 32917857
L25703571 33060714
L25632142 33132142
L25489285 33203571
L24917857 33203571
L24917857 31703571
L25417857 31703571
L25560714 31775000
L25632142 31846428
L25703571 31989285
L25703571 32132142
L25632142 32275000
L25560714 32346428
L25417857 32417857
L24917857 32417857
" />
<path d="M26703571 32489285
L26703571 33203571
" />
<path d="M26203571 31703571
L26703571 32489285
L27203571 31703571
" />
<path d="M27703571 33203571
L27703571 31703571
L28275000 31703571
L28417857 31775000
L28489285 31846428
L28560714 31989285
L28560714 32203571
L28489285 32346428
L28417857 32417857
L28275000 32489285
L27703571 32489285
" />
<path d="M29132142 32775000
L29846428 32775000
" />
<path d="M28989285 33203571
L29489285 31703571
L29989285 33203571
" />
<path d="M30417857 33132142
L30632142 33203571
L30989285 33203571
L31132142 33132142
L31203571 33060714
L31275000 32917857
L31275000 32775000
L31203571 32632142
L31132142 32560714
L30989285 32489285
L30703571 32417857
L30560714 32346428
L30489285 32275000
L30417857 32132142
L30417857 31989285
L30489285 31846428
L30560714 31775000
L30703571 31703571
L31060714 31703571
L31275000 31775000
" />
<path d="M31846428 33132142
L32060714 33203571
L32417857 33203571
L32560714 33132142
L32632142 33060714
L32703571 32917857
L32703571 32775000
L32632142 32632142
L32560714 32560714
L32417857 32489285
L32132142 32417857
L31989285 32346428
L31917857 32275000
L31846428 32132142
L31846428 31989285
L31917857 31846428
L31989285 31775000
L32132142 31703571
L32489285 31703571
L32703571 31775000
" />
</g><text x="8775000.000000" y="106675000.000000"
textLength="14488571.000000" font-size="2400000.000000" lengthAdjust="spacingAndGlyphs"
text-anchor="middle" opacity="0">VIDEO_OUT</text>
<g class="stroked-text"><desc>VIDEO_OUT</desc>
<path d="M1832142 104789285
L2432142 106589285
L3032142 104789285
" />
<path d="M3632142 106589285
L3632142 104789285
" />
<path d="M4489285 106589285
L4489285 104789285
L4917857 104789285
L5175000 104875000
L5346428 105046428
L5432142 105217857
L5517857 105560714
L5517857 105817857
L5432142 106160714
L5346428 106332142
L5175000 106503571
L4917857 106589285
L4489285 106589285
" />
<path d="M6289285 105646428
L6889285 105646428
" />
<path d="M7146428 106589285
L6289285 106589285
L6289285 104789285
L7146428 104789285
" />
<path d="M8260714 104789285
L8603571 104789285
L8775000 104875000
L8946428 105046428
L9032142 105389285
L9032142 105989285
L8946428 106332142
L8775000 106503571
L8603571 106589285
L8260714 106589285
L8089285 106503571
L7917857 106332142
L7832142 105989285
L7832142 105389285
L7917857 105046428
L8089285 104875000
L8260714 104789285
" />
<path d="M9375000 106760714
L10746428 106760714
" />
<path d="M11517857 104789285
L11860714 104789285
L12032142 104875000
L12203571 105046428
L12289285 105389285
L12289285 105989285
L12203571 106332142
L12032142 106503571
L11860714 106589285
L11517857 106589285
L11346428 106503571
L11175000 106332142
L11089285 105989285
L11089285 105389285
L11175000 105046428
L11346428 104875000
L11517857 104789285
" />
<path d="M13060714 104789285
L13060714 106246428
L13146428 106417857
L13232142 106503571
L13403571 106589285
L13746428 106589285
L13917857 106503571
L14003571 106417857
L14089285 106246428
L14089285 104789285
" />
<path d="M14689285 104789285
L15717857 104789285
" />
<path d="M15203571 106589285
L15203571 104789285
" />
</g></g>
<g style="fill:#000000; fill-opacity:0.0; 
stroke:#000000; stroke-width:500000.000000; stroke-opacity:1; 
stroke-linecap:round; stroke-linejoin:round;">
<text x="17775000.000000" y="119804000.000000"
textLength="16260000.000000" font-size="5333333.000000" lengthAdjust="spacingAndGlyphs"
text-anchor="middle" opacity="0">_^ 05</text>
<g class="stroked-text"><desc>_^ 05</desc>
<path d="M9775000 119994476
L12822619 119994476
" />
<path d="M13203571 115994476
L13965476 115423047
L14727380 115994476
" />
<path d="M19870238 115613523
L20251190 115613523
L20632142 115804000
L20822619 115994476
L21013095 116375428
L21203571 117137333
L21203571 118089714
L21013095 118851619
L20822619 119232571
L20632142 119423047
L20251190 119613523
L19870238 119613523
L19489285 119423047
L19298809 119232571
L19108333 118851619
L18917857 118089714
L18917857 117137333
L19108333 116375428
L19298809 115994476
L19489285 115804000
L19870238 115613523
" />
<path d="M24822619 115613523
L22917857 115613523
L22727380 117518285
L22917857 117327809
L23298809 117137333
L24251190 117137333
L24632142 117327809
L24822619 117518285
L25013095 117899238
L25013095 118851619
L24822619 119232571
L24632142 119423047
L24251190 119613523
L23298809 119613523
L22917857 119423047
L22727380 119232571
" />
</g></g>
<g style="fill:#000000; fill-opacity:0.0; 
stroke:#000000; stroke-width:200000.000000; stroke-opacity:1; 
stroke-linecap:round; stroke-linejoin:round;">
<text x="17175000.000000" y="122604000.000000"
textLength="16307143.000000" font-size="1600000.000000" lengthAdjust="spacingAndGlyphs"
text-anchor="middle" opacity="0">underscores.shop</text>
<g class="stroked-text"><desc>underscores.shop</desc>
<path d="M10146428 121746857
L10146428 122546857
" />
<path d="M9632142 121746857
L9632142 122375428
L9689285 122489714
L9803571 122546857
L9975000 122546857
L10089285 122489714
L10146428 122432571
" />
<path d="M10717857 121746857
L10717857 122546857
" />
<path d="M10717857 121861142
L10775000 121804000
L10889285 121746857
L11060714 121746857
L11175000 121804000
L11232142 121918285
L11232142 122546857
" />
<path d="M12317857 122546857
L12317857 121346857
" />
<path d="M12317857 122489714
L12203571 122546857
L11975000 122546857
L11860714 122489714
L11803571 122432571
L11746428 122318285
L11746428 121975428
L11803571 121861142
L11860714 121804000
L11975000 121746857
L12203571 121746857
L12317857 121804000
" />
<path d="M13346428 122489714
L13232142 122546857
L13003571 122546857
L12889285 122489714
L12832142 122375428
L12832142 121918285
L12889285 121804000
L13003571 121746857
L13232142 121746857
L13346428 121804000
L13403571 121918285
L13403571 122032571
L12832142 122146857
" />
<path d="M13917857 122546857
L13917857 121746857
" />
<path d="M13917857 121975428
L13975000 121861142
L14032142 121804000
L14146428 121746857
L14260714 121746857
" />
<path d="M14603571 122489714
L14717857 122546857
L14946428 122546857
L15060714 122489714
L15117857 122375428
L15117857 122318285
L15060714 122204000
L14946428 122146857
L14775000 122146857
L14660714 122089714
L14603571 121975428
L14603571 121918285
L14660714 121804000
L14775000 121746857
L14946428 121746857
L15060714 121804000
" />
<path d="M16146428 122489714
L16032142 122546857
L15803571 122546857
L15689285 122489714
L15632142 122432571
L15575000 122318285
L15575000 121975428
L15632142 121861142
L15689285 121804000
L15803571 121746857
L16032142 121746857
L16146428 121804000
" />
<path d="M16832142 122546857
L16717857 122489714
L16660714 122432571
L16603571 122318285
L16603571 121975428
L16660714 121861142
L16717857 121804000
L16832142 121746857
L17003571 121746857
L17117857 121804000
L17175000 121861142
L17232142 121975428
L17232142 122318285
L17175000 122432571
L17117857 122489714
L17003571 122546857
L16832142 122546857
" />
<path d="M17746428 122546857
L17746428 121746857
" />
<path d="M17746428 121975428
L17803571 121861142
L17860714 121804000
L17975000 121746857
L18089285 121746857
" />
<path d="M18946428 122489714
L18832142 122546857
L18603571 122546857
L18489285 122489714
L18432142 122375428
L18432142 121918285
L18489285 121804000
L18603571 121746857
L18832142 121746857
L18946428 121804000
L19003571 121918285
L19003571 122032571
L18432142 122146857
" />
<path d="M19460714 122489714
L19575000 122546857
L19803571 122546857
L19917857 122489714
L19975000 122375428
L19975000 122318285
L19917857 122204000
L19803571 122146857
L19632142 122146857
L19517857 122089714
L19460714 121975428
L19460714 121918285
L19517857 121804000
L19632142 121746857
L19803571 121746857
L19917857 121804000
" />
<path d="M20489285 122432571
L20546428 122489714
L20489285 122546857
L20432142 122489714
L20489285 122432571
L20489285 122546857
" />
<path d="M21003571 122489714
L21117857 122546857
L21346428 122546857
L21460714 122489714
L21517857 122375428
L21517857 122318285
L21460714 122204000
L21346428 122146857
L21175000 122146857
L21060714 122089714
L21003571 121975428
L21003571 121918285
L21060714 121804000
L21175000 121746857
L21346428 121746857
L21460714 121804000
" />
<path d="M22032142 122546857
L22032142 121346857
" />
<path d="M22546428 122546857
L22546428 121918285
L22489285 121804000
L22375000 121746857
L22203571 121746857
L22089285 121804000
L22032142 121861142
" />
<path d="M23289285 122546857
L23175000 122489714
L23117857 122432571
L23060714 122318285
L23060714 121975428
L23117857 121861142
L23175000 121804000
L23289285 121746857
L23460714 121746857
L23575000 121804000
L23632142 121861142
L23689285 121975428
L23689285 122318285
L23632142 122432571
L23575000 122489714
L23460714 122546857
L23289285 122546857
" />
<path d="M24203571 121746857
L24203571 122946857
" />
<path d="M24203571 121804000
L24317857 121746857
L24546428 121746857
L24660714 121804000
L24717857 121861142
L24775000 121975428
L24775000 122318285
L24717857 122432571
L24660714 122489714
L24546428 122546857
L24317857 122546857
L24203571 122489714
" />
</g><text x="8025000.000000" y="23925000.000000"
textLength="12088571.000000" font-size="2400000.000000" lengthAdjust="spacingAndGlyphs"
text-anchor="middle" opacity="0">VIDEO_IN</text>
<g class="stroked-text"><desc>VIDEO_IN</desc>
<path d="M2282142 22039285
L2882142 23839285
L3482142 22039285
" />
<path d="M4082142 23839285
L4082142 22039285
" />
<path d="M4939285 23839285
L4939285 22039285
L5367857 22039285
L5625000 22125000
L5796428 22296428
L5882142 22467857
L5967857 22810714
L5967857 23067857
L5882142 23410714
L5796428 23582142
L5625000 23753571
L5367857 23839285
L4939285 23839285
" />
<path d="M6739285 22896428
L7339285 22896428
" />
<path d="M7596428 23839285
L6739285 23839285
L6739285 22039285
L7596428 22039285
" />
<path d="M8710714 22039285
L9053571 22039285
L9225000 22125000
L9396428 22296428
L9482142 22639285
L9482142 23239285
L9396428 23582142
L9225000 23753571
L9053571 23839285
L8710714 23839285
L8539285 23753571
L8367857 23582142
L8282142 23239285
L8282142 22639285
L8367857 22296428
L8539285 22125000
L8710714 22039285
" />
<path d="M9825000 24010714
L11196428 24010714
" />
<path d="M11625000 23839285
L11625000 22039285
" />
<path d="M12482142 23839285
L12482142 22039285
L13510714 23839285
L13510714 22039285
" />
</g></g>
<g style="fill:#000000; fill-opacity:0.0; 
stroke:#000000; stroke-width:150000.000000; stroke-opacity:1; 
stroke-linecap:round; stroke-linejoin:round;">
<text x="33775000.000000" y="9125000.000000"
textLength="33369524.000000" font-size="2266666.000000" lengthAdjust="spacingAndGlyphs"
text-anchor="end" opacity="0">TWO_COMPARATOR_EFFECT</text>
<g class="stroked-text"><desc>TWO_COMPARATOR_EFFECT</desc>
<path d="M729880 7344047
L1701309 7344047
" />
<path d="M1215595 9044047
L1215595 7344047
" />
<path d="M2106071 7344047
L2510833 9044047
L2834642 7829761
L3158452 9044047
L3563214 7344047
" />
<path d="M4534642 7344047
L4858452 7344047
L5020357 7425000
L5182261 7586904
L5263214 7910714
L5263214 8477380
L5182261 8801190
L5020357 8963095
L4858452 9044047
L4534642 9044047
L4372738 8963095
L4210833 8801190
L4129880 8477380
L4129880 7910714
L4210833 7586904
L4372738 7425000
L4534642 7344047
" />
<path d="M5587023 9205952
L6882261 9205952
" />
<path d="M8258452 8882142
L8177499 8963095
L7934642 9044047
L7772738 9044047
L7529880 8963095
L7367976 8801190
L7287023 8639285
L7206071 8315476
L7206071 8072619
L7287023 7748809
L7367976 7586904
L7529880 7425000
L7772738 7344047
L7934642 7344047
L8177499 7425000
L8258452 7505952
" />
<path d="M9310833 7344047
L9634642 7344047
L9796547 7425000
L9958452 7586904
L10039404 7910714
L10039404 8477380
L9958452 8801190
L9796547 8963095
L9634642 9044047
L9310833 9044047
L9148928 8963095
L8987023 8801190
L8906071 8477380
L8906071 7910714
L8987023 7586904
L9148928 7425000
L9310833 7344047
" />
<path d="M10767976 9044047
L10767976 7344047
L11334642 8558333
L11901309 7344047
L11901309 9044047
" />
<path d="M12710833 9044047
L12710833 7344047
L13358452 7344047
L13520357 7425000
L13601309 7505952
L13682261 7667857
L13682261 7910714
L13601309 8072619
L13520357 8153571
L13358452 8234523
L12710833 8234523
" />
<path d="M14329880 8558333
L15139404 8558333
" />
<path d="M14167976 9044047
L14734642 7344047
L15301309 9044047
" />
<path d="M16839404 9044047
L16272738 8234523
" />
<path d="M15867976 9044047
L15867976 7344047
L16515595 7344047
L16677499 7425000
L16758452 7505952
L16839404 7667857
L16839404 7910714
L16758452 8072619
L16677499 8153571
L16515595 8234523
L15867976 8234523
" />
<path d="M17487023 8558333
L18296547 8558333
" />
<path d="M17325119 9044047
L17891785 7344047
L18458452 9044047
" />
<path d="M18782261 7344047
L19753690 7344047
" />
<path d="M19267976 9044047
L19267976 7344047
" />
<path d="M20644166 7344047
L20967976 7344047
L21129880 7425000
L21291785 7586904
L21372738 7910714
L21372738 8477380
L21291785 8801190
L21129880 8963095
L20967976 9044047
L20644166 9044047
L20482261 8963095
L20320357 8801190
L20239404 8477380
L20239404 7910714
L20320357 7586904
L20482261 7425000
L20644166 7344047
" />
<path d="M23072738 9044047
L22506071 8234523
" />
<path d="M22101309 9044047
L22101309 7344047
L22748928 7344047
L22910833 7425000
L22991785 7505952
L23072738 7667857
L23072738 7910714
L22991785 8072619
L22910833 8153571
L22748928 8234523
L22101309 8234523
" />
<path d="M23396547 9205952
L24691785 9205952
" />
<path d="M25096547 8153571
L25663214 8153571
" />
<path d="M25906071 9044047
L25096547 9044047
L25096547 7344047
L25906071 7344047
" />
<path d="M27201309 8153571
L26634642 8153571
" />
<path d="M26634642 9044047
L26634642 7344047
L27444166 7344047
" />
<path d="M28658452 8153571
L28091785 8153571
" />
<path d="M28091785 9044047
L28091785 7344047
L28901309 7344047
" />
<path d="M29548928 8153571
L30115595 8153571
" />
<path d="M30358452 9044047
L29548928 9044047
L29548928 7344047
L30358452 7344047
" />
<path d="M32058452 8882142
L31977500 8963095
L31734642 9044047
L31572738 9044047
L31329880 8963095
L31167976 8801190
L31087023 8639285
L31006071 8315476
L31006071 8072619
L31087023 7748809
L31167976 7586904
L31329880 7425000
L31572738 7344047
L31734642 7344047
L31977500 7425000
L32058452 7505952
" />
<path d="M32544166 7344047
L33515595 7344047
" />
<path d="M33029880 9044047
L33029880 7344047
" />
</g><g >
</g>
<g >
</g>
<g >
</g>
</g> 
</svg>
