  0
SECTION
  2
HEADER
  9
$ACADVER
  1
AC1014
  9
$HANDSEED
  5
FFFF
  9
$INSUNITS
 70
     5
  9
$MEASUREMENT
 70
     1
  0
ENDSEC
  0
SECTION
  2
TABLES
  0
TABLE
  2
VPORT
  5
8
330
0
100
AcDbSymbolTable
 70
     4
  0
VPORT
  5
2E
330
8
100
AcDbSymbolTableRecord
100
AcDbViewportTableRecord
  2
*ACTIVE
 70
     0
 10
0.0
 20
0.0
 11
1.0
 21
1.0
 12
210.0
 22
148.5
 13
0.0
 23
0.0
 14
10.0
 24
10.0
 15
10.0
 25
10.0
 16
0.0
 26
0.0
 36
1.0
 17
0.0
 27
0.0
 37
0.0
 40
341.0
 41
1.24
 42
50.0
 43
0.0
 44
0.0
 50
0.0
 51
0.0
 71
     0
 72
   100
 73
     1
 74
     3
 75
     0
 76
     0
 77
     0
 78
     0
  0
ENDTAB
  0
TABLE
  2
LTYPE
  5
5
330
0
100
AcDbSymbolTable
 70
     1
  0
LTYPE
  5
14
330
5
100
AcDbSymbolTableRecord
100
AcDbLinetypeTableRecord
  2
BYBLOCK
 70
     0
  3

 72
    65
 73
     0
 40
0.0
  0
LTYPE
  5
15
330
5
100
AcDbSymbolTableRecord
100
AcDbLinetypeTableRecord
  2
BYLAYER
 70
     0
  3

 72
    65
 73
     0
 40
0.0
  0
LTYPE
  5
16
330
5
100
AcDbSymbolTableRecord
100
AcDbLinetypeTableRecord
  2
CONTINUOUS
 70
     0
  3
Solid line
 72
    65
 73
     0
 40
0.0
  0
ENDTAB
  0
TABLE
  2
LAYER
  5
2
100
AcDbSymbolTable
 70
1
  0
LAYER
  5
50
100
AcDbSymbolTableRecord
100
AcDbLayerTableRecord
  2
0
 70
0
  6
CONTINUOUS
  0
ENDTAB
  0
TABLE
  2
STYLE
  5
3
330
0
100
AcDbSymbolTable
 70
     1
  0
STYLE
  5
11
330
3
100
AcDbSymbolTableRecord
100
AcDbTextStyleTableRecord
  2
STANDARD
 70
     0
 40
0.0
 41
1.0
 50
0.0
 71
     0
 42
2.5
  3
txt
  4

  0
ENDTAB
  0
TABLE
  2
VIEW
  5
6
330
0
100
AcDbSymbolTable
 70
     0
  0
ENDTAB
  0
TABLE
  2
UCS
  5
7
330
0
100
AcDbSymbolTable
 70
     0
  0
ENDTAB
  0
TABLE
  2
APPID
  5
9
330
0
100
AcDbSymbolTable
 70
     2
  0
APPID
  5
12
330
9
100
AcDbSymbolTableRecord
100
AcDbRegAppTableRecord
  2
ACAD
 70
     0
  0
ENDTAB
  0
TABLE
  2
DIMSTYLE
  5
A
330
0
100
AcDbSymbolTable
 70
     1
  0
DIMSTYLE
105
27
330
A
100
AcDbSymbolTableRecord
100
AcDbDimStyleTableRecord
  2
ISO-25
 70
     0
  3

  4

  5

  6

  7

 40
1.0
 41
2.5
 42
0.625
 43
3.75
 44
1.25
 45
0.0
 46
0.0
 47
0.0
 48
0.0
140
2.5
141
2.5
142
0.0
143
0.03937007874016
144
1.0
145
0.0
146
1.0
147
0.625
 71
     0
 72
     0
 73
     0
 74
     0
 75
     0
 76
     0
 77
     1
 78
     8
170
     0
171
     3
172
     1
173
     0
174
     0
175
     0
176
     0
177
     0
178
     0
270
     2
271
     2
272
     2
273
     2
274
     3
340
11
275
     0
280
     0
281
     0
282
     0
283
     0
284
     8
285
     0
286
     0
287
     3
288
     0
  0
ENDTAB
  0
TABLE
  2
BLOCK_RECORD
  5
1
330
0
100
AcDbSymbolTable
 70
     1
  0
BLOCK_RECORD
  5
1F
330
1
100
AcDbSymbolTableRecord
100
AcDbBlockTableRecord
  2
*MODEL_SPACE
  0
BLOCK_RECORD
  5
1B
330
1
100
AcDbSymbolTableRecord
100
AcDbBlockTableRecord
  2
*PAPER_SPACE
  0
ENDTAB
  0
ENDSEC
  0
SECTION
  2
BLOCKS
  0
BLOCK
  5
20
330
1F
100
AcDbEntity
  8
0
100
AcDbBlockBegin
  2
*MODEL_SPACE
 70
     0
 10
0.0
 20
0.0
 30
0.0
  3
*MODEL_SPACE
  1

  0
ENDBLK
  5
21
330
1F
100
AcDbEntity
  8
0
100
AcDbBlockEnd
  0
BLOCK
  5
1C
330
1B
100
AcDbEntity
 67
     1
  8
0
100
AcDbBlockBegin
  2
*PAPER_SPACE
  1

  0
ENDBLK
  5
1D
330
1B
100
AcDbEntity
 67
     1
  8
0
100
AcDbBlockEnd
  0
ENDSEC
  0
SECTION
  2
ENTITIES
  0
LWPOLYLINE
  5
100
100
AcDbEntity
  8
0
 62
7
100
AcDbPolyline
 90
2
 70
0
 10
0.002500
 20
12.852440
 30
0.0
 10
3.502500
 20
12.852440
 30
0.0
  0
SPLINE
  5
101
100
AcDbEntity
  8
0
 62
7
100
AcDbSpline
 70
8
 71
3
 72
8
 73
4
 74
0
 40
0
 40
0
 40
0
 40
0
 40
1
 40
1
 40
1
 40
1
 10
0.929846
 20
8.722095
 30
0.0
 10
0.762538
 20
8.722095
 30
0.0
 10
0.611704
 20
8.621311
 30
0.0
 10
0.547678
 20
8.466739
 30
0.0
  0
SPLINE
  5
102
100
AcDbEntity
  8
0
 62
7
100
AcDbSpline
 70
8
 71
3
 72
8
 73
4
 74
0
 40
0
 40
0
 40
0
 40
0
 40
1
 40
1
 40
1
 40
1
 10
0.547678
 20
8.466739
 30
0.0
 10
0.483653
 20
8.312167
 30
0.0
 10
0.519043
 20
8.134246
 30
0.0
 10
0.637348
 20
8.015942
 30
0.0
  0
SPLINE
  5
103
100
AcDbEntity
  8
0
 62
7
100
AcDbSpline
 70
8
 71
3
 72
8
 73
4
 74
0
 40
0
 40
0
 40
0
 40
0
 40
1
 40
1
 40
1
 40
1
 10
0.637348
 20
8.015942
 30
0.0
 10
0.755652
 20
7.897638
 30
0.0
 10
0.933572
 20
7.862247
 30
0.0
 10
1.088144
 20
7.926273
 30
0.0
  0
SPLINE
  5
104
100
AcDbEntity
  8
0
 62
7
100
AcDbSpline
 70
8
 71
3
 72
8
 73
4
 74
0
 40
0
 40
0
 40
0
 40
0
 40
1
 40
1
 40
1
 40
1
 10
1.088144
 20
7.926273
 30
0.0
 10
1.242716
 20
7.990299
 30
0.0
 10
1.343500
 20
8.141132
 30
0.0
 10
1.343500
 20
8.308440
 30
0.0
  0
SPLINE
  5
105
100
AcDbEntity
  8
0
 62
7
100
AcDbSpline
 70
8
 71
3
 72
8
 73
4
 74
0
 40
0
 40
0
 40
0
 40
0
 40
1
 40
1
 40
1
 40
1
 10
1.343500
 20
8.308440
 30
0.0
 10
1.343500
 20
8.418148
 30
0.0
 10
1.299919
 20
8.523363
 30
0.0
 10
1.222343
 20
8.600938
 30
0.0
  0
SPLINE
  5
106
100
AcDbEntity
  8
0
 62
7
100
AcDbSpline
 70
8
 71
3
 72
8
 73
4
 74
0
 40
0
 40
0
 40
0
 40
0
 40
1
 40
1
 40
1
 40
1
 10
1.222343
 20
8.600938
 30
0.0
 10
1.144768
 20
8.678513
 30
0.0
 10
1.039554
 20
8.722095
 30
0.0
 10
0.929846
 20
8.722095
 30
0.0
  0
LWPOLYLINE
  5
107
100
AcDbEntity
  8
0
 62
7
100
AcDbPolyline
 90
2
 70
0
 10
0.002500
 20
0.002440
 30
0.0
 10
0.002500
 20
12.852440
 30
0.0
  0
SPLINE
  5
108
100
AcDbEntity
  8
0
 62
7
100
AcDbSpline
 70
8
 71
3
 72
8
 73
4
 74
0
 40
0
 40
0
 40
0
 40
0
 40
1
 40
1
 40
1
 40
1
 10
2.340500
 20
11.186440
 30
0.0
 10
2.077600
 20
11.186440
 30
0.0
 10
1.840586
 20
11.028073
 30
0.0
 10
1.739978
 20
10.785184
 30
0.0
  0
SPLINE
  5
109
100
AcDbEntity
  8
0
 62
7
100
AcDbSpline
 70
8
 71
3
 72
8
 73
4
 74
0
 40
0
 40
0
 40
0
 40
0
 40
1
 40
1
 40
1
 40
1
 10
1.739978
 20
10.785184
 30
0.0
 10
1.639371
 20
10.542296
 30
0.0
 10
1.694982
 20
10.262719
 30
0.0
 10
1.880881
 20
10.076821
 30
0.0
  0
SPLINE
  5
10a
100
AcDbEntity
  8
0
 62
7
100
AcDbSpline
 70
8
 71
3
 72
8
 73
4
 74
0
 40
0
 40
0
 40
0
 40
0
 40
1
 40
1
 40
1
 40
1
 10
1.880881
 20
10.076821
 30
0.0
 10
2.066779
 20
9.890922
 30
0.0
 10
2.346356
 20
9.835311
 30
0.0
 10
2.589244
 20
9.935918
 30
0.0
  0
SPLINE
  5
10b
100
AcDbEntity
  8
0
 62
7
100
AcDbSpline
 70
8
 71
3
 72
8
 73
4
 74
0
 40
0
 40
0
 40
0
 40
0
 40
1
 40
1
 40
1
 40
1
 10
2.589244
 20
9.935918
 30
0.0
 10
2.832133
 20
10.036526
 30
0.0
 10
2.990500
 20
10.273540
 30
0.0
 10
2.990500
 20
10.536440
 30
0.0
  0
SPLINE
  5
10c
100
AcDbEntity
  8
0
 62
7
100
AcDbSpline
 70
8
 71
3
 72
8
 73
4
 74
0
 40
0
 40
0
 40
0
 40
0
 40
1
 40
1
 40
1
 40
1
 10
2.990500
 20
10.536440
 30
0.0
 10
2.990500
 20
10.708831
 30
0.0
 10
2.922018
 20
10.874161
 30
0.0
 10
2.800119
 20
10.996059
 30
0.0
  0
SPLINE
  5
10d
100
AcDbEntity
  8
0
 62
7
100
AcDbSpline
 70
8
 71
3
 72
8
 73
4
 74
0
 40
0
 40
0
 40
0
 40
0
 40
1
 40
1
 40
1
 40
1
 10
2.800119
 20
10.996059
 30
0.0
 10
2.678221
 20
11.117958
 30
0.0
 10
2.512891
 20
11.186440
 30
0.0
 10
2.340500
 20
11.186440
 30
0.0
  0
LWPOLYLINE
  5
10e
100
AcDbEntity
  8
0
 62
7
100
AcDbPolyline
 90
1
 70
1
 10
0.929846
 20
8.722095
 30
0.0
  0
SPLINE
  5
10f
100
AcDbEntity
  8
0
 62
7
100
AcDbSpline
 70
8
 71
3
 72
8
 73
4
 74
0
 40
0
 40
0
 40
0
 40
0
 40
1
 40
1
 40
1
 40
1
 10
2.298500
 20
2.959440
 30
0.0
 10
2.035600
 20
2.959440
 30
0.0
 10
1.798586
 20
2.801073
 30
0.0
 10
1.697978
 20
2.558184
 30
0.0
  0
SPLINE
  5
110
100
AcDbEntity
  8
0
 62
7
100
AcDbSpline
 70
8
 71
3
 72
8
 73
4
 74
0
 40
0
 40
0
 40
0
 40
0
 40
1
 40
1
 40
1
 40
1
 10
1.697978
 20
2.558184
 30
0.0
 10
1.597371
 20
2.315296
 30
0.0
 10
1.652982
 20
2.035719
 30
0.0
 10
1.838881
 20
1.849821
 30
0.0
  0
SPLINE
  5
111
100
AcDbEntity
  8
0
 62
7
100
AcDbSpline
 70
8
 71
3
 72
8
 73
4
 74
0
 40
0
 40
0
 40
0
 40
0
 40
1
 40
1
 40
1
 40
1
 10
1.838881
 20
1.849821
 30
0.0
 10
2.024779
 20
1.663922
 30
0.0
 10
2.304356
 20
1.608311
 30
0.0
 10
2.547244
 20
1.708918
 30
0.0
  0
SPLINE
  5
112
100
AcDbEntity
  8
0
 62
7
100
AcDbSpline
 70
8
 71
3
 72
8
 73
4
 74
0
 40
0
 40
0
 40
0
 40
0
 40
1
 40
1
 40
1
 40
1
 10
2.547244
 20
1.708918
 30
0.0
 10
2.790133
 20
1.809526
 30
0.0
 10
2.948500
 20
2.046540
 30
0.0
 10
2.948500
 20
2.309440
 30
0.0
  0
SPLINE
  5
113
100
AcDbEntity
  8
0
 62
7
100
AcDbSpline
 70
8
 71
3
 72
8
 73
4
 74
0
 40
0
 40
0
 40
0
 40
0
 40
1
 40
1
 40
1
 40
1
 10
2.948500
 20
2.309440
 30
0.0
 10
2.948500
 20
2.481831
 30
0.0
 10
2.880018
 20
2.647161
 30
0.0
 10
2.758119
 20
2.769059
 30
0.0
  0
SPLINE
  5
114
100
AcDbEntity
  8
0
 62
7
100
AcDbSpline
 70
8
 71
3
 72
8
 73
4
 74
0
 40
0
 40
0
 40
0
 40
0
 40
1
 40
1
 40
1
 40
1
 10
2.758119
 20
2.769059
 30
0.0
 10
2.636221
 20
2.890958
 30
0.0
 10
2.470891
 20
2.959440
 30
0.0
 10
2.298500
 20
2.959440
 30
0.0
  0
LWPOLYLINE
  5
115
100
AcDbEntity
  8
0
 62
7
100
AcDbPolyline
 90
1
 70
1
 10
2.340500
 20
11.186440
 30
0.0
  0
SPLINE
  5
116
100
AcDbEntity
  8
0
 62
7
100
AcDbSpline
 70
8
 71
3
 72
8
 73
4
 74
0
 40
0
 40
0
 40
0
 40
0
 40
1
 40
1
 40
1
 40
1
 10
2.889846
 20
9.428743
 30
0.0
 10
2.714995
 20
9.428743
 30
0.0
 10
2.557362
 20
9.323416
 30
0.0
 10
2.490449
 20
9.161875
 30
0.0
  0
SPLINE
  5
117
100
AcDbEntity
  8
0
 62
7
100
AcDbSpline
 70
8
 71
3
 72
8
 73
4
 74
0
 40
0
 40
0
 40
0
 40
0
 40
1
 40
1
 40
1
 40
1
 10
2.490449
 20
9.161875
 30
0.0
 10
2.423537
 20
9.000335
 30
0.0
 10
2.460523
 20
8.814393
 30
0.0
 10
2.584161
 20
8.690755
 30
0.0
  0
SPLINE
  5
118
100
AcDbEntity
  8
0
 62
7
100
AcDbSpline
 70
8
 71
3
 72
8
 73
4
 74
0
 40
0
 40
0
 40
0
 40
0
 40
1
 40
1
 40
1
 40
1
 10
2.584161
 20
8.690755
 30
0.0
 10
2.707799
 20
8.567117
 30
0.0
 10
2.893740
 20
8.530131
 30
0.0
 10
3.055281
 20
8.597044
 30
0.0
  0
SPLINE
  5
119
100
AcDbEntity
  8
0
 62
7
100
AcDbSpline
 70
8
 71
3
 72
8
 73
4
 74
0
 40
0
 40
0
 40
0
 40
0
 40
1
 40
1
 40
1
 40
1
 10
3.055281
 20
8.597044
 30
0.0
 10
3.216822
 20
8.663956
 30
0.0
 10
3.322149
 20
8.821590
 30
0.0
 10
3.322149
 20
8.996440
 30
0.0
  0
SPLINE
  5
11a
100
AcDbEntity
  8
0
 62
7
100
AcDbSpline
 70
8
 71
3
 72
8
 73
4
 74
0
 40
0
 40
0
 40
0
 40
0
 40
1
 40
1
 40
1
 40
1
 10
3.322149
 20
8.996440
 30
0.0
 10
3.322149
 20
9.111094
 30
0.0
 10
3.276603
 20
9.221052
 30
0.0
 10
3.195530
 20
9.302125
 30
0.0
  0
SPLINE
  5
11b
100
AcDbEntity
  8
0
 62
7
100
AcDbSpline
 70
8
 71
3
 72
8
 73
4
 74
0
 40
0
 40
0
 40
0
 40
0
 40
1
 40
1
 40
1
 40
1
 10
3.195530
 20
9.302125
 30
0.0
 10
3.114458
 20
9.383197
 30
0.0
 10
3.004499
 20
9.428743
 30
0.0
 10
2.889846
 20
9.428743
 30
0.0
  0
LWPOLYLINE
  5
11c
100
AcDbEntity
  8
0
 62
7
100
AcDbPolyline
 90
1
 70
1
 10
2.298500
 20
2.959440
 30
0.0
  0
LWPOLYLINE
  5
11d
100
AcDbEntity
  8
0
 62
7
100
AcDbPolyline
 90
1
 70
1
 10
2.889846
 20
9.428743
 30
0.0
  0
SPLINE
  5
11e
100
AcDbEntity
  8
0
 62
7
100
AcDbSpline
 70
8
 71
3
 72
8
 73
4
 74
0
 40
0
 40
0
 40
0
 40
0
 40
1
 40
1
 40
1
 40
1
 10
2.637500
 20
12.712440
 30
0.0
 10
2.580338
 20
12.712440
 30
0.0
 10
2.527517
 20
12.681944
 30
0.0
 10
2.498936
 20
12.632440
 30
0.0
  0
SPLINE
  5
11f
100
AcDbEntity
  8
0
 62
7
100
AcDbSpline
 70
8
 71
3
 72
8
 73
4
 74
0
 40
0
 40
0
 40
0
 40
0
 40
1
 40
1
 40
1
 40
1
 10
2.498936
 20
12.632440
 30
0.0
 10
2.470355
 20
12.582936
 30
0.0
 10
2.470355
 20
12.521944
 30
0.0
 10
2.498936
 20
12.472440
 30
0.0
  0
SPLINE
  5
120
100
AcDbEntity
  8
0
 62
7
100
AcDbSpline
 70
8
 71
3
 72
8
 73
4
 74
0
 40
0
 40
0
 40
0
 40
0
 40
1
 40
1
 40
1
 40
1
 10
2.498936
 20
12.472440
 30
0.0
 10
2.527517
 20
12.422936
 30
0.0
 10
2.580338
 20
12.392440
 30
0.0
 10
2.637500
 20
12.392440
 30
0.0
  0
SPLINE
  5
121
100
AcDbEntity
  8
0
 62
7
100
AcDbSpline
 70
8
 71
3
 72
8
 73
4
 74
0
 40
0
 40
0
 40
0
 40
0
 40
1
 40
1
 40
1
 40
1
 10
0.867500
 20
0.142440
 30
0.0
 10
0.924662
 20
0.142440
 30
0.0
 10
0.977483
 20
0.172936
 30
0.0
 10
1.006064
 20
0.222440
 30
0.0
  0
SPLINE
  5
122
100
AcDbEntity
  8
0
 62
7
100
AcDbSpline
 70
8
 71
3
 72
8
 73
4
 74
0
 40
0
 40
0
 40
0
 40
0
 40
1
 40
1
 40
1
 40
1
 10
1.006064
 20
0.222440
 30
0.0
 10
1.034645
 20
0.271944
 30
0.0
 10
1.034645
 20
0.332936
 30
0.0
 10
1.006064
 20
0.382440
 30
0.0
  0
SPLINE
  5
123
100
AcDbEntity
  8
0
 62
7
100
AcDbSpline
 70
8
 71
3
 72
8
 73
4
 74
0
 40
0
 40
0
 40
0
 40
0
 40
1
 40
1
 40
1
 40
1
 10
1.006064
 20
0.382440
 30
0.0
 10
0.977483
 20
0.431944
 30
0.0
 10
0.924662
 20
0.462440
 30
0.0
 10
0.867500
 20
0.462440
 30
0.0
  0
SPLINE
  5
124
100
AcDbEntity
  8
0
 62
7
100
AcDbSpline
 70
8
 71
3
 72
8
 73
4
 74
0
 40
0
 40
0
 40
0
 40
0
 40
1
 40
1
 40
1
 40
1
 10
2.867500
 20
0.142440
 30
0.0
 10
2.924662
 20
0.142440
 30
0.0
 10
2.977483
 20
0.172936
 30
0.0
 10
3.006064
 20
0.222440
 30
0.0
  0
SPLINE
  5
125
100
AcDbEntity
  8
0
 62
7
100
AcDbSpline
 70
8
 71
3
 72
8
 73
4
 74
0
 40
0
 40
0
 40
0
 40
0
 40
1
 40
1
 40
1
 40
1
 10
3.006064
 20
0.222440
 30
0.0
 10
3.034645
 20
0.271944
 30
0.0
 10
3.034645
 20
0.332936
 30
0.0
 10
3.006064
 20
0.382440
 30
0.0
  0
SPLINE
  5
126
100
AcDbEntity
  8
0
 62
7
100
AcDbSpline
 70
8
 71
3
 72
8
 73
4
 74
0
 40
0
 40
0
 40
0
 40
0
 40
1
 40
1
 40
1
 40
1
 10
3.006064
 20
0.382440
 30
0.0
 10
2.977483
 20
0.431944
 30
0.0
 10
2.924662
 20
0.462440
 30
0.0
 10
2.867500
 20
0.462440
 30
0.0
  0
LWPOLYLINE
  5
127
100
AcDbEntity
  8
0
 62
7
100
AcDbPolyline
 90
2
 70
0
 10
2.867500
 20
0.462440
 30
0.0
 10
2.637500
 20
0.462440
 30
0.0
  0
SPLINE
  5
128
100
AcDbEntity
  8
0
 62
7
100
AcDbSpline
 70
8
 71
3
 72
8
 73
4
 74
0
 40
0
 40
0
 40
0
 40
0
 40
1
 40
1
 40
1
 40
1
 10
0.350723
 20
11.254217
 30
0.0
 10
0.279224
 20
11.254217
 30
0.0
 10
0.214765
 20
11.211146
 30
0.0
 10
0.187403
 20
11.145090
 30
0.0
  0
SPLINE
  5
129
100
AcDbEntity
  8
0
 62
7
100
AcDbSpline
 70
8
 71
3
 72
8
 73
4
 74
0
 40
0
 40
0
 40
0
 40
0
 40
1
 40
1
 40
1
 40
1
 10
0.187403
 20
11.145090
 30
0.0
 10
0.160041
 20
11.079033
 30
0.0
 10
0.175166
 20
11.002998
 30
0.0
 10
0.225723
 20
10.952440
 30
0.0
  0
SPLINE
  5
12a
100
AcDbEntity
  8
0
 62
7
100
AcDbSpline
 70
8
 71
3
 72
8
 73
4
 74
0
 40
0
 40
0
 40
0
 40
0
 40
1
 40
1
 40
1
 40
1
 10
0.225723
 20
10.952440
 30
0.0
 10
0.276281
 20
10.901882
 30
0.0
 10
0.352316
 20
10.886758
 30
0.0
 10
0.418373
 20
10.914120
 30
0.0
  0
SPLINE
  5
12b
100
AcDbEntity
  8
0
 62
7
100
AcDbSpline
 70
8
 71
3
 72
8
 73
4
 74
0
 40
0
 40
0
 40
0
 40
0
 40
1
 40
1
 40
1
 40
1
 10
0.418373
 20
10.914120
 30
0.0
 10
0.484430
 20
10.941481
 30
0.0
 10
0.527500
 20
11.005940
 30
0.0
 10
0.527500
 20
11.077440
 30
0.0
  0
SPLINE
  5
12c
100
AcDbEntity
  8
0
 62
7
100
AcDbSpline
 70
8
 71
3
 72
8
 73
4
 74
0
 40
0
 40
0
 40
0
 40
0
 40
1
 40
1
 40
1
 40
1
 10
0.527500
 20
11.077440
 30
0.0
 10
0.527500
 20
11.124324
 30
0.0
 10
0.508875
 20
11.169288
 30
0.0
 10
0.475723
 20
11.202440
 30
0.0
  0
SPLINE
  5
12d
100
AcDbEntity
  8
0
 62
7
100
AcDbSpline
 70
8
 71
3
 72
8
 73
4
 74
0
 40
0
 40
0
 40
0
 40
0
 40
1
 40
1
 40
1
 40
1
 10
0.475723
 20
11.202440
 30
0.0
 10
0.442571
 20
11.235592
 30
0.0
 10
0.397607
 20
11.254217
 30
0.0
 10
0.350723
 20
11.254217
 30
0.0
  0
LWPOLYLINE
  5
12e
100
AcDbEntity
  8
0
 62
7
100
AcDbPolyline
 90
2
 70
0
 10
2.867500
 20
12.392440
 30
0.0
 10
2.637500
 20
12.392440
 30
0.0
  0
LWPOLYLINE
  5
12f
100
AcDbEntity
  8
0
 62
7
100
AcDbPolyline
 90
1
 70
1
 10
0.350723
 20
11.254217
 30
0.0
  0
SPLINE
  5
130
100
AcDbEntity
  8
0
 62
7
100
AcDbSpline
 70
8
 71
3
 72
8
 73
4
 74
0
 40
0
 40
0
 40
0
 40
0
 40
1
 40
1
 40
1
 40
1
 10
0.637500
 20
12.712440
 30
0.0
 10
0.580338
 20
12.712440
 30
0.0
 10
0.527517
 20
12.681944
 30
0.0
 10
0.498936
 20
12.632440
 30
0.0
  0
SPLINE
  5
131
100
AcDbEntity
  8
0
 62
7
100
AcDbSpline
 70
8
 71
3
 72
8
 73
4
 74
0
 40
0
 40
0
 40
0
 40
0
 40
1
 40
1
 40
1
 40
1
 10
0.498936
 20
12.632440
 30
0.0
 10
0.470355
 20
12.582936
 30
0.0
 10
0.470355
 20
12.521944
 30
0.0
 10
0.498936
 20
12.472440
 30
0.0
  0
SPLINE
  5
132
100
AcDbEntity
  8
0
 62
7
100
AcDbSpline
 70
8
 71
3
 72
8
 73
4
 74
0
 40
0
 40
0
 40
0
 40
0
 40
1
 40
1
 40
1
 40
1
 10
0.498936
 20
12.472440
 30
0.0
 10
0.527517
 20
12.422936
 30
0.0
 10
0.580338
 20
12.392440
 30
0.0
 10
0.637500
 20
12.392440
 30
0.0
  0
LWPOLYLINE
  5
133
100
AcDbEntity
  8
0
 62
7
100
AcDbPolyline
 90
2
 70
0
 10
0.867500
 20
0.462440
 30
0.0
 10
0.637500
 20
0.462440
 30
0.0
  0
LWPOLYLINE
  5
134
100
AcDbEntity
  8
0
 62
7
100
AcDbPolyline
 90
2
 70
0
 10
0.867500
 20
12.712440
 30
0.0
 10
0.637500
 20
12.712440
 30
0.0
  0
SPLINE
  5
135
100
AcDbEntity
  8
0
 62
7
100
AcDbSpline
 70
8
 71
3
 72
8
 73
4
 74
0
 40
0
 40
0
 40
0
 40
0
 40
1
 40
1
 40
1
 40
1
 10
2.637500
 20
0.462440
 30
0.0
 10
2.580338
 20
0.462440
 30
0.0
 10
2.527517
 20
0.431944
 30
0.0
 10
2.498936
 20
0.382440
 30
0.0
  0
SPLINE
  5
136
100
AcDbEntity
  8
0
 62
7
100
AcDbSpline
 70
8
 71
3
 72
8
 73
4
 74
0
 40
0
 40
0
 40
0
 40
0
 40
1
 40
1
 40
1
 40
1
 10
2.498936
 20
0.382440
 30
0.0
 10
2.470355
 20
0.332936
 30
0.0
 10
2.470355
 20
0.271944
 30
0.0
 10
2.498936
 20
0.222440
 30
0.0
  0
SPLINE
  5
137
100
AcDbEntity
  8
0
 62
7
100
AcDbSpline
 70
8
 71
3
 72
8
 73
4
 74
0
 40
0
 40
0
 40
0
 40
0
 40
1
 40
1
 40
1
 40
1
 10
2.498936
 20
0.222440
 30
0.0
 10
2.527517
 20
0.172936
 30
0.0
 10
2.580338
 20
0.142440
 30
0.0
 10
2.637500
 20
0.142440
 30
0.0
  0
LWPOLYLINE
  5
138
100
AcDbEntity
  8
0
 62
7
100
AcDbPolyline
 90
2
 70
0
 10
3.502500
 20
0.002440
 30
0.0
 10
3.502500
 20
12.852440
 30
0.0
  0
SPLINE
  5
139
100
AcDbEntity
  8
0
 62
7
100
AcDbSpline
 70
8
 71
3
 72
8
 73
4
 74
0
 40
0
 40
0
 40
0
 40
0
 40
1
 40
1
 40
1
 40
1
 10
0.943500
 20
4.961241
 30
0.0
 10
0.776192
 20
4.961241
 30
0.0
 10
0.625359
 20
4.860457
 30
0.0
 10
0.561333
 20
4.705885
 30
0.0
  0
SPLINE
  5
13a
100
AcDbEntity
  8
0
 62
7
100
AcDbSpline
 70
8
 71
3
 72
8
 73
4
 74
0
 40
0
 40
0
 40
0
 40
0
 40
1
 40
1
 40
1
 40
1
 10
0.561333
 20
4.705885
 30
0.0
 10
0.497307
 20
4.551313
 30
0.0
 10
0.532698
 20
4.373393
 30
0.0
 10
0.651002
 20
4.255089
 30
0.0
  0
SPLINE
  5
13b
100
AcDbEntity
  8
0
 62
7
100
AcDbSpline
 70
8
 71
3
 72
8
 73
4
 74
0
 40
0
 40
0
 40
0
 40
0
 40
1
 40
1
 40
1
 40
1
 10
0.651002
 20
4.255089
 30
0.0
 10
0.769306
 20
4.136784
 30
0.0
 10
0.947227
 20
4.101394
 30
0.0
 10
1.101799
 20
4.165419
 30
0.0
  0
SPLINE
  5
13c
100
AcDbEntity
  8
0
 62
7
100
AcDbSpline
 70
8
 71
3
 72
8
 73
4
 74
0
 40
0
 40
0
 40
0
 40
0
 40
1
 40
1
 40
1
 40
1
 10
1.101799
 20
4.165419
 30
0.0
 10
1.256371
 20
4.229445
 30
0.0
 10
1.357155
 20
4.380279
 30
0.0
 10
1.357155
 20
4.547586
 30
0.0
  0
SPLINE
  5
13d
100
AcDbEntity
  8
0
 62
7
100
AcDbSpline
 70
8
 71
3
 72
8
 73
4
 74
0
 40
0
 40
0
 40
0
 40
0
 40
1
 40
1
 40
1
 40
1
 10
1.357155
 20
4.547586
 30
0.0
 10
1.357155
 20
4.657295
 30
0.0
 10
1.313573
 20
4.762509
 30
0.0
 10
1.235998
 20
4.840084
 30
0.0
  0
SPLINE
  5
13e
100
AcDbEntity
  8
0
 62
7
100
AcDbSpline
 70
8
 71
3
 72
8
 73
4
 74
0
 40
0
 40
0
 40
0
 40
0
 40
1
 40
1
 40
1
 40
1
 10
1.235998
 20
4.840084
 30
0.0
 10
1.158423
 20
4.917660
 30
0.0
 10
1.053208
 20
4.961241
 30
0.0
 10
0.943500
 20
4.961241
 30
0.0
  0
LWPOLYLINE
  5
13f
100
AcDbEntity
  8
0
 62
7
100
AcDbPolyline
 90
2
 70
0
 10
3.502500
 20
0.002440
 30
0.0
 10
0.002500
 20
0.002440
 30
0.0
  0
SPLINE
  5
140
100
AcDbEntity
  8
0
 62
7
100
AcDbSpline
 70
8
 71
3
 72
8
 73
4
 74
0
 40
0
 40
0
 40
0
 40
0
 40
1
 40
1
 40
1
 40
1
 10
0.637500
 20
0.462440
 30
0.0
 10
0.580338
 20
0.462440
 30
0.0
 10
0.527517
 20
0.431944
 30
0.0
 10
0.498936
 20
0.382440
 30
0.0
  0
SPLINE
  5
141
100
AcDbEntity
  8
0
 62
7
100
AcDbSpline
 70
8
 71
3
 72
8
 73
4
 74
0
 40
0
 40
0
 40
0
 40
0
 40
1
 40
1
 40
1
 40
1
 10
0.498936
 20
0.382440
 30
0.0
 10
0.470355
 20
0.332936
 30
0.0
 10
0.470355
 20
0.271944
 30
0.0
 10
0.498936
 20
0.222440
 30
0.0
  0
SPLINE
  5
142
100
AcDbEntity
  8
0
 62
7
100
AcDbSpline
 70
8
 71
3
 72
8
 73
4
 74
0
 40
0
 40
0
 40
0
 40
0
 40
1
 40
1
 40
1
 40
1
 10
0.498936
 20
0.222440
 30
0.0
 10
0.527517
 20
0.172936
 30
0.0
 10
0.580338
 20
0.142440
 30
0.0
 10
0.637500
 20
0.142440
 30
0.0
  0
SPLINE
  5
143
100
AcDbEntity
  8
0
 62
7
100
AcDbSpline
 70
8
 71
3
 72
8
 73
4
 74
0
 40
0
 40
0
 40
0
 40
0
 40
1
 40
1
 40
1
 40
1
 10
3.152500
 20
11.254217
 30
0.0
 10
3.081000
 20
11.254217
 30
0.0
 10
3.016541
 20
11.211146
 30
0.0
 10
2.989180
 20
11.145090
 30
0.0
  0
SPLINE
  5
144
100
AcDbEntity
  8
0
 62
7
100
AcDbSpline
 70
8
 71
3
 72
8
 73
4
 74
0
 40
0
 40
0
 40
0
 40
0
 40
1
 40
1
 40
1
 40
1
 10
2.989180
 20
11.145090
 30
0.0
 10
2.961818
 20
11.079033
 30
0.0
 10
2.976942
 20
11.002998
 30
0.0
 10
3.027500
 20
10.952440
 30
0.0
  0
SPLINE
  5
145
100
AcDbEntity
  8
0
 62
7
100
AcDbSpline
 70
8
 71
3
 72
8
 73
4
 74
0
 40
0
 40
0
 40
0
 40
0
 40
1
 40
1
 40
1
 40
1
 10
3.027500
 20
10.952440
 30
0.0
 10
3.078058
 20
10.901882
 30
0.0
 10
3.154093
 20
10.886758
 30
0.0
 10
3.220150
 20
10.914120
 30
0.0
  0
SPLINE
  5
146
100
AcDbEntity
  8
0
 62
7
100
AcDbSpline
 70
8
 71
3
 72
8
 73
4
 74
0
 40
0
 40
0
 40
0
 40
0
 40
1
 40
1
 40
1
 40
1
 10
3.220150
 20
10.914120
 30
0.0
 10
3.286206
 20
10.941481
 30
0.0
 10
3.329277
 20
11.005940
 30
0.0
 10
3.329277
 20
11.077440
 30
0.0
  0
SPLINE
  5
147
100
AcDbEntity
  8
0
 62
7
100
AcDbSpline
 70
8
 71
3
 72
8
 73
4
 74
0
 40
0
 40
0
 40
0
 40
0
 40
1
 40
1
 40
1
 40
1
 10
3.329277
 20
11.077440
 30
0.0
 10
3.329277
 20
11.124324
 30
0.0
 10
3.310652
 20
11.169288
 30
0.0
 10
3.277500
 20
11.202440
 30
0.0
  0
SPLINE
  5
148
100
AcDbEntity
  8
0
 62
7
100
AcDbSpline
 70
8
 71
3
 72
8
 73
4
 74
0
 40
0
 40
0
 40
0
 40
0
 40
1
 40
1
 40
1
 40
1
 10
3.277500
 20
11.202440
 30
0.0
 10
3.244348
 20
11.235592
 30
0.0
 10
3.199384
 20
11.254217
 30
0.0
 10
3.152500
 20
11.254217
 30
0.0
  0
LWPOLYLINE
  5
149
100
AcDbEntity
  8
0
 62
7
100
AcDbPolyline
 90
1
 70
1
 10
0.943500
 20
4.961241
 30
0.0
  0
SPLINE
  5
14a
100
AcDbEntity
  8
0
 62
7
100
AcDbSpline
 70
8
 71
3
 72
8
 73
4
 74
0
 40
0
 40
0
 40
0
 40
0
 40
1
 40
1
 40
1
 40
1
 10
0.867500
 20
12.392440
 30
0.0
 10
0.924662
 20
12.392440
 30
0.0
 10
0.977483
 20
12.422936
 30
0.0
 10
1.006064
 20
12.472440
 30
0.0
  0
SPLINE
  5
14b
100
AcDbEntity
  8
0
 62
7
100
AcDbSpline
 70
8
 71
3
 72
8
 73
4
 74
0
 40
0
 40
0
 40
0
 40
0
 40
1
 40
1
 40
1
 40
1
 10
1.006064
 20
12.472440
 30
0.0
 10
1.034645
 20
12.521944
 30
0.0
 10
1.034645
 20
12.582936
 30
0.0
 10
1.006064
 20
12.632440
 30
0.0
  0
SPLINE
  5
14c
100
AcDbEntity
  8
0
 62
7
100
AcDbSpline
 70
8
 71
3
 72
8
 73
4
 74
0
 40
0
 40
0
 40
0
 40
0
 40
1
 40
1
 40
1
 40
1
 10
1.006064
 20
12.632440
 30
0.0
 10
0.977483
 20
12.681944
 30
0.0
 10
0.924662
 20
12.712440
 30
0.0
 10
0.867500
 20
12.712440
 30
0.0
  0
SPLINE
  5
14d
100
AcDbEntity
  8
0
 62
7
100
AcDbSpline
 70
8
 71
3
 72
8
 73
4
 74
0
 40
0
 40
0
 40
0
 40
0
 40
1
 40
1
 40
1
 40
1
 10
3.145723
 20
1.954217
 30
0.0
 10
3.074224
 20
1.954217
 30
0.0
 10
3.009765
 20
1.911146
 30
0.0
 10
2.982403
 20
1.845090
 30
0.0
  0
SPLINE
  5
14e
100
AcDbEntity
  8
0
 62
7
100
AcDbSpline
 70
8
 71
3
 72
8
 73
4
 74
0
 40
0
 40
0
 40
0
 40
0
 40
1
 40
1
 40
1
 40
1
 10
2.982403
 20
1.845090
 30
0.0
 10
2.955041
 20
1.779033
 30
0.0
 10
2.970166
 20
1.702998
 30
0.0
 10
3.020723
 20
1.652440
 30
0.0
  0
SPLINE
  5
14f
100
AcDbEntity
  8
0
 62
7
100
AcDbSpline
 70
8
 71
3
 72
8
 73
4
 74
0
 40
0
 40
0
 40
0
 40
0
 40
1
 40
1
 40
1
 40
1
 10
3.020723
 20
1.652440
 30
0.0
 10
3.071281
 20
1.601882
 30
0.0
 10
3.147316
 20
1.586758
 30
0.0
 10
3.213373
 20
1.614120
 30
0.0
  0
SPLINE
  5
150
100
AcDbEntity
  8
0
 62
7
100
AcDbSpline
 70
8
 71
3
 72
8
 73
4
 74
0
 40
0
 40
0
 40
0
 40
0
 40
1
 40
1
 40
1
 40
1
 10
3.213373
 20
1.614120
 30
0.0
 10
3.279430
 20
1.641481
 30
0.0
 10
3.322500
 20
1.705940
 30
0.0
 10
3.322500
 20
1.777440
 30
0.0
  0
SPLINE
  5
151
100
AcDbEntity
  8
0
 62
7
100
AcDbSpline
 70
8
 71
3
 72
8
 73
4
 74
0
 40
0
 40
0
 40
0
 40
0
 40
1
 40
1
 40
1
 40
1
 10
3.322500
 20
1.777440
 30
0.0
 10
3.322500
 20
1.824324
 30
0.0
 10
3.303875
 20
1.869288
 30
0.0
 10
3.270723
 20
1.902440
 30
0.0
  0
SPLINE
  5
152
100
AcDbEntity
  8
0
 62
7
100
AcDbSpline
 70
8
 71
3
 72
8
 73
4
 74
0
 40
0
 40
0
 40
0
 40
0
 40
1
 40
1
 40
1
 40
1
 10
3.270723
 20
1.902440
 30
0.0
 10
3.237571
 20
1.935592
 30
0.0
 10
3.192607
 20
1.954217
 30
0.0
 10
3.145723
 20
1.954217
 30
0.0
  0
LWPOLYLINE
  5
153
100
AcDbEntity
  8
0
 62
7
100
AcDbPolyline
 90
1
 70
1
 10
3.152500
 20
11.254217
 30
0.0
  0
LWPOLYLINE
  5
154
100
AcDbEntity
  8
0
 62
7
100
AcDbPolyline
 90
1
 70
1
 10
3.145723
 20
1.954217
 30
0.0
  0
SPLINE
  5
155
100
AcDbEntity
  8
0
 62
7
100
AcDbSpline
 70
8
 71
3
 72
8
 73
4
 74
0
 40
0
 40
0
 40
0
 40
0
 40
1
 40
1
 40
1
 40
1
 10
2.867500
 20
12.392440
 30
0.0
 10
2.924662
 20
12.392440
 30
0.0
 10
2.977483
 20
12.422936
 30
0.0
 10
3.006064
 20
12.472440
 30
0.0
  0
SPLINE
  5
156
100
AcDbEntity
  8
0
 62
7
100
AcDbSpline
 70
8
 71
3
 72
8
 73
4
 74
0
 40
0
 40
0
 40
0
 40
0
 40
1
 40
1
 40
1
 40
1
 10
3.006064
 20
12.472440
 30
0.0
 10
3.034645
 20
12.521944
 30
0.0
 10
3.034645
 20
12.582936
 30
0.0
 10
3.006064
 20
12.632440
 30
0.0
  0
SPLINE
  5
157
100
AcDbEntity
  8
0
 62
7
100
AcDbSpline
 70
8
 71
3
 72
8
 73
4
 74
0
 40
0
 40
0
 40
0
 40
0
 40
1
 40
1
 40
1
 40
1
 10
3.006064
 20
12.632440
 30
0.0
 10
2.977483
 20
12.681944
 30
0.0
 10
2.924662
 20
12.712440
 30
0.0
 10
2.867500
 20
12.712440
 30
0.0
  0
LWPOLYLINE
  5
158
100
AcDbEntity
  8
0
 62
7
100
AcDbPolyline
 90
2
 70
0
 10
2.867500
 20
0.142440
 30
0.0
 10
2.637500
 20
0.142440
 30
0.0
  0
LWPOLYLINE
  5
159
100
AcDbEntity
  8
0
 62
7
100
AcDbPolyline
 90
2
 70
0
 10
0.867500
 20
12.392440
 30
0.0
 10
0.637500
 20
12.392440
 30
0.0
  0
LWPOLYLINE
  5
15a
100
AcDbEntity
  8
0
 62
7
100
AcDbPolyline
 90
2
 70
0
 10
2.867500
 20
12.712440
 30
0.0
 10
2.637500
 20
12.712440
 30
0.0
  0
SPLINE
  5
15b
100
AcDbEntity
  8
0
 62
7
100
AcDbSpline
 70
8
 71
3
 72
8
 73
4
 74
0
 40
0
 40
0
 40
0
 40
0
 40
1
 40
1
 40
1
 40
1
 10
0.352500
 20
1.947440
 30
0.0
 10
0.281000
 20
1.947440
 30
0.0
 10
0.216541
 20
1.904370
 30
0.0
 10
0.189180
 20
1.838313
 30
0.0
  0
SPLINE
  5
15c
100
AcDbEntity
  8
0
 62
7
100
AcDbSpline
 70
8
 71
3
 72
8
 73
4
 74
0
 40
0
 40
0
 40
0
 40
0
 40
1
 40
1
 40
1
 40
1
 10
0.189180
 20
1.838313
 30
0.0
 10
0.161818
 20
1.772256
 30
0.0
 10
0.176942
 20
1.696221
 30
0.0
 10
0.227500
 20
1.645663
 30
0.0
  0
SPLINE
  5
15d
100
AcDbEntity
  8
0
 62
7
100
AcDbSpline
 70
8
 71
3
 72
8
 73
4
 74
0
 40
0
 40
0
 40
0
 40
0
 40
1
 40
1
 40
1
 40
1
 10
0.227500
 20
1.645663
 30
0.0
 10
0.278058
 20
1.595106
 30
0.0
 10
0.354093
 20
1.579981
 30
0.0
 10
0.420150
 20
1.607343
 30
0.0
  0
SPLINE
  5
15e
100
AcDbEntity
  8
0
 62
7
100
AcDbSpline
 70
8
 71
3
 72
8
 73
4
 74
0
 40
0
 40
0
 40
0
 40
0
 40
1
 40
1
 40
1
 40
1
 10
0.420150
 20
1.607343
 30
0.0
 10
0.486206
 20
1.634705
 30
0.0
 10
0.529277
 20
1.699164
 30
0.0
 10
0.529277
 20
1.770663
 30
0.0
  0
SPLINE
  5
15f
100
AcDbEntity
  8
0
 62
7
100
AcDbSpline
 70
8
 71
3
 72
8
 73
4
 74
0
 40
0
 40
0
 40
0
 40
0
 40
1
 40
1
 40
1
 40
1
 10
0.529277
 20
1.770663
 30
0.0
 10
0.529277
 20
1.817547
 30
0.0
 10
0.510652
 20
1.862511
 30
0.0
 10
0.477500
 20
1.895663
 30
0.0
  0
SPLINE
  5
160
100
AcDbEntity
  8
0
 62
7
100
AcDbSpline
 70
8
 71
3
 72
8
 73
4
 74
0
 40
0
 40
0
 40
0
 40
0
 40
1
 40
1
 40
1
 40
1
 10
0.477500
 20
1.895663
 30
0.0
 10
0.444348
 20
1.928815
 30
0.0
 10
0.399384
 20
1.947440
 30
0.0
 10
0.352500
 20
1.947440
 30
0.0
  0
LWPOLYLINE
  5
161
100
AcDbEntity
  8
0
 62
7
100
AcDbPolyline
 90
2
 70
0
 10
0.867500
 20
0.142440
 30
0.0
 10
0.637500
 20
0.142440
 30
0.0
  0
LWPOLYLINE
  5
162
100
AcDbEntity
  8
0
 62
7
100
AcDbPolyline
 90
1
 70
1
 10
0.352500
 20
1.947440
 30
0.0
  0
ENDSEC
  0
SECTION
  2
OBJECTS
  0
DICTIONARY
  5
C
330
0
100
AcDbDictionary
  3
ACAD_GROUP
350
D
  3
ACAD_MLINESTYLE
350
17
  0
DICTIONARY
  5
D
330
C
100
AcDbDictionary
  0
DICTIONARY
  5
1A
330
C
100
AcDbDictionary
  0
DICTIONARY
  5
17
330
C
100
AcDbDictionary
  3
STANDARD
350
18
  0
DICTIONARY
  5
19
330
C
100
AcDbDictionary
  0
ENDSEC
  0
EOF
